<?xml version="1.0" encoding="UTF-8" standalone="no"?><!DOCTYPE svg PUBLIC "-//W3C//DTD SVG 1.1//EN" "http://www.w3.org/Graphics/SVG/1.1/DTD/svg11.dtd"><!-- Generated by graphviz version 2.40.1 (20161225.0304)
 --><!-- Title: %0 Pages: 1 --><svg xmlns="http://www.w3.org/2000/svg" xmlns:xlink="http://www.w3.org/1999/xlink" width="1660pt" height="1124pt" viewBox="0.00 0.00 1659.80 1124.00">
<g id="graph0" class="graph" transform="scale(1 1) rotate(0) translate(4 1120)">
<title>%0</title>
<polygon fill="#ffffff" stroke="transparent" points="-4,4 -4,-1120 1655.7994,-1120 1655.7994,4 -4,4"/>
<!-- n0 -->
<g id="node1" class="node">
<title>n0</title>
<ellipse fill="none" stroke="#000000" cx="405.7666" cy="-1098" rx="100.7811" ry="18"/>
<text text-anchor="middle" x="405.7666" y="-1093.8" font-family="Times,serif" font-size="14.00" fill="#000000">root (CompilationUnit)</text>
</g>
<!-- n1 -->
<g id="node2" class="node">
<title>n1</title>
<ellipse fill="none" stroke="#000000" cx="173.7666" cy="-1026" rx="173.5336" ry="18"/>
<text text-anchor="middle" x="173.7666" y="-1021.8" font-family="Times,serif" font-size="14.00" fill="#000000">packageDeclaration (PackageDeclaration)</text>
</g>
<!-- n0&#45;&gt;n1 -->
<g id="edge1" class="edge">
<title>n0-&gt;n1</title>
<path fill="none" stroke="#000000" d="M355.4261,-1082.3771C321.1721,-1071.7465 275.5286,-1057.5813 238.5636,-1046.1094"/>
<polygon fill="#000000" stroke="#000000" points="239.4642,-1042.7243 228.8761,-1043.1029 237.3893,-1049.4097 239.4642,-1042.7243"/>
</g>
<!-- n6 -->
<g id="node4" class="node">
<title>n6</title>
<ellipse fill="none" stroke="#000000" cx="405.7666" cy="-1026" rx="40.5867" ry="18"/>
<text text-anchor="middle" x="405.7666" y="-1021.8" font-family="Times,serif" font-size="14.00" fill="#000000">imports</text>
</g>
<!-- n0&#45;&gt;n6 -->
<g id="edge3" class="edge">
<title>n0-&gt;n6</title>
<path fill="none" stroke="#000000" d="M405.7666,-1079.8314C405.7666,-1072.131 405.7666,-1062.9743 405.7666,-1054.4166"/>
<polygon fill="#000000" stroke="#000000" points="409.2667,-1054.4132 405.7666,-1044.4133 402.2667,-1054.4133 409.2667,-1054.4132"/>
</g>
<!-- n16 -->
<g id="node12" class="node">
<title>n16</title>
<ellipse fill="none" stroke="#000000" cx="592.7666" cy="-1026" rx="31.339" ry="18"/>
<text text-anchor="middle" x="592.7666" y="-1021.8" font-family="Times,serif" font-size="14.00" fill="#000000">types</text>
</g>
<!-- n0&#45;&gt;n16 -->
<g id="edge11" class="edge">
<title>n0-&gt;n16</title>
<path fill="none" stroke="#000000" d="M448.1998,-1081.6621C481.0656,-1069.0079 526.0746,-1051.6782 557.0974,-1039.7336"/>
<polygon fill="#000000" stroke="#000000" points="558.5706,-1042.9169 566.6452,-1036.0575 556.0554,-1036.3844 558.5706,-1042.9169"/>
</g>
<!-- n2 -->
<g id="node3" class="node">
<title>n2</title>
<ellipse fill="none" stroke="#000000" cx="173.7666" cy="-954" rx="27" ry="18"/>
<text text-anchor="middle" x="173.7666" y="-949.8" font-family="Times,serif" font-size="14.00" fill="#000000">...</text>
</g>
<!-- n1&#45;&gt;n2 -->
<g id="edge2" class="edge">
<title>n1-&gt;n2</title>
<path fill="none" stroke="#000000" d="M173.7666,-1007.8314C173.7666,-1000.131 173.7666,-990.9743 173.7666,-982.4166"/>
<polygon fill="#000000" stroke="#000000" points="177.2667,-982.4132 173.7666,-972.4133 170.2667,-982.4133 177.2667,-982.4132"/>
</g>
<!-- n7 -->
<g id="node5" class="node">
<title>n7</title>
<ellipse fill="none" stroke="#000000" cx="370.7666" cy="-954" rx="116.9097" ry="18"/>
<text text-anchor="middle" x="370.7666" y="-949.8" font-family="Times,serif" font-size="14.00" fill="#000000">import (ImportDeclaration)</text>
</g>
<!-- n6&#45;&gt;n7 -->
<g id="edge4" class="edge">
<title>n6-&gt;n7</title>
<path fill="none" stroke="#000000" d="M397.115,-1008.2022C393.1486,-1000.0428 388.3592,-990.1904 383.9577,-981.1358"/>
<polygon fill="#000000" stroke="#000000" points="387.0817,-979.5566 379.5619,-972.0931 380.7861,-982.617 387.0817,-979.5566"/>
</g>
<!-- n10 -->
<g id="node6" class="node">
<title>n10</title>
<ellipse fill="none" stroke="#000000" cx="334.7666" cy="-882" rx="63.703" ry="18"/>
<text text-anchor="middle" x="334.7666" y="-877.8" font-family="Times,serif" font-size="14.00" fill="#000000">name (Name)</text>
</g>
<!-- n7&#45;&gt;n10 -->
<g id="edge5" class="edge">
<title>n7-&gt;n10</title>
<path fill="none" stroke="#000000" d="M361.6823,-935.8314C357.601,-927.6688 352.7016,-917.87 348.208,-908.8827"/>
<polygon fill="#000000" stroke="#000000" points="351.326,-907.2924 343.7234,-899.9134 345.065,-910.423 351.326,-907.2924"/>
</g>
<!-- n11 -->
<g id="node7" class="node">
<title>n11</title>
<ellipse fill="none" stroke="#000000" cx="206.7666" cy="-810" rx="84.6561" ry="18"/>
<text text-anchor="middle" x="206.7666" y="-805.8" font-family="Times,serif" font-size="14.00" fill="#000000">identifier='Arrays'</text>
</g>
<!-- n10&#45;&gt;n11 -->
<g id="edge6" class="edge">
<title>n10-&gt;n11</title>
<path fill="none" stroke="#000000" d="M306.0409,-865.8418C288.2243,-855.8199 265.1036,-842.8145 245.6581,-831.8764"/>
<polygon fill="#000000" stroke="#000000" points="247.1632,-828.7074 236.7315,-826.8552 243.7313,-834.8084 247.1632,-828.7074"/>
</g>
<!-- n12 -->
<g id="node8" class="node">
<title>n12</title>
<ellipse fill="none" stroke="#000000" cx="384.7666" cy="-810" rx="75.7967" ry="18"/>
<text text-anchor="middle" x="384.7666" y="-805.8" font-family="Times,serif" font-size="14.00" fill="#000000">qualifier (Name)</text>
</g>
<!-- n10&#45;&gt;n12 -->
<g id="edge7" class="edge">
<title>n10-&gt;n12</title>
<path fill="none" stroke="#000000" d="M347.1262,-864.2022C353.0157,-855.7214 360.1753,-845.4115 366.6628,-836.0696"/>
<polygon fill="#000000" stroke="#000000" points="369.5468,-838.0527 372.376,-827.8425 363.7972,-834.0599 369.5468,-838.0527"/>
</g>
<!-- n13 -->
<g id="node9" class="node">
<title>n13</title>
<ellipse fill="none" stroke="#000000" cx="282.7666" cy="-738" rx="71.372" ry="18"/>
<text text-anchor="middle" x="282.7666" y="-733.8" font-family="Times,serif" font-size="14.00" fill="#000000">identifier='util'</text>
</g>
<!-- n12&#45;&gt;n13 -->
<g id="edge8" class="edge">
<title>n12-&gt;n13</title>
<path fill="none" stroke="#000000" d="M360.5941,-792.937C347.1005,-783.4122 330.1044,-771.4149 315.4399,-761.0635"/>
<polygon fill="#000000" stroke="#000000" points="317.3073,-758.0975 307.1192,-755.19 313.2705,-763.8163 317.3073,-758.0975"/>
</g>
<!-- n14 -->
<g id="node10" class="node">
<title>n14</title>
<ellipse fill="none" stroke="#000000" cx="447.7666" cy="-738" rx="75.7967" ry="18"/>
<text text-anchor="middle" x="447.7666" y="-733.8" font-family="Times,serif" font-size="14.00" fill="#000000">qualifier (Name)</text>
</g>
<!-- n12&#45;&gt;n14 -->
<g id="edge9" class="edge">
<title>n12-&gt;n14</title>
<path fill="none" stroke="#000000" d="M400.3397,-792.2022C407.9119,-783.5483 417.1504,-772.99 425.4552,-763.4988"/>
<polygon fill="#000000" stroke="#000000" points="428.2034,-765.6731 432.1544,-755.8425 422.9353,-761.0636 428.2034,-765.6731"/>
</g>
<!-- n15 -->
<g id="node11" class="node">
<title>n15</title>
<ellipse fill="none" stroke="#000000" cx="447.7666" cy="-666" rx="74.2839" ry="18"/>
<text text-anchor="middle" x="447.7666" y="-661.8" font-family="Times,serif" font-size="14.00" fill="#000000">identifier='java'</text>
</g>
<!-- n14&#45;&gt;n15 -->
<g id="edge10" class="edge">
<title>n14-&gt;n15</title>
<path fill="none" stroke="#000000" d="M447.7666,-719.8314C447.7666,-712.131 447.7666,-702.9743 447.7666,-694.4166"/>
<polygon fill="#000000" stroke="#000000" points="451.2667,-694.4132 447.7666,-684.4133 444.2667,-694.4133 451.2667,-694.4132"/>
</g>
<!-- n17 -->
<g id="node13" class="node">
<title>n17</title>
<ellipse fill="none" stroke="#000000" cx="806.7666" cy="-954" rx="146.9199" ry="18"/>
<text text-anchor="middle" x="806.7666" y="-949.8" font-family="Times,serif" font-size="14.00" fill="#000000">type (ClassOrInterfaceDeclaration)</text>
</g>
<!-- n16&#45;&gt;n17 -->
<g id="edge12" class="edge">
<title>n16-&gt;n17</title>
<path fill="none" stroke="#000000" d="M619.8699,-1016.8812C651.5898,-1006.209 705.074,-988.2144 746.7203,-974.2025"/>
<polygon fill="#000000" stroke="#000000" points="747.8592,-977.5122 756.2211,-971.006 745.627,-970.8776 747.8592,-977.5122"/>
</g>
<!-- n18 -->
<g id="node14" class="node">
<title>n18</title>
<ellipse fill="none" stroke="#000000" cx="498.7666" cy="-882" rx="81.7637" ry="18"/>
<text text-anchor="middle" x="498.7666" y="-877.8" font-family="Times,serif" font-size="14.00" fill="#000000">isInterface='false'</text>
</g>
<!-- n17&#45;&gt;n18 -->
<g id="edge13" class="edge">
<title>n17-&gt;n18</title>
<path fill="none" stroke="#000000" d="M738.4115,-938.0209C686.7392,-925.9416 616.2047,-909.4531 565.0469,-897.4941"/>
<polygon fill="#000000" stroke="#000000" points="565.6192,-894.0336 555.085,-895.1653 564.0258,-900.8498 565.6192,-894.0336"/>
</g>
<!-- n19 -->
<g id="node15" class="node">
<title>n19</title>
<ellipse fill="none" stroke="#000000" cx="689.7666" cy="-882" rx="91.429" ry="18"/>
<text text-anchor="middle" x="689.7666" y="-877.8" font-family="Times,serif" font-size="14.00" fill="#000000">name (SimpleName)</text>
</g>
<!-- n17&#45;&gt;n19 -->
<g id="edge14" class="edge">
<title>n17-&gt;n19</title>
<path fill="none" stroke="#000000" d="M777.8453,-936.2022C762.4292,-926.7154 743.2942,-914.94 726.8018,-904.7909"/>
<polygon fill="#000000" stroke="#000000" points="728.3025,-901.6048 717.9516,-899.3446 724.6338,-907.5664 728.3025,-901.6048"/>
</g>
<!-- n21 -->
<g id="node17" class="node">
<title>n21</title>
<ellipse fill="none" stroke="#000000" cx="923.7666" cy="-882" rx="125.0233" ry="18"/>
<text text-anchor="middle" x="923.7666" y="-877.8" font-family="Times,serif" font-size="14.00" fill="#000000">comment (JavadocComment)</text>
</g>
<!-- n17&#45;&gt;n21 -->
<g id="edge16" class="edge">
<title>n17-&gt;n21</title>
<path fill="none" stroke="#000000" d="M835.688,-936.2022C850.9899,-926.7857 869.9558,-915.1144 886.3646,-905.0167"/>
<polygon fill="#000000" stroke="#000000" points="888.4957,-907.8149 895.178,-899.593 884.827,-901.8532 888.4957,-907.8149"/>
</g>
<!-- n23 -->
<g id="node19" class="node">
<title>n23</title>
<ellipse fill="none" stroke="#000000" cx="1171.7666" cy="-882" rx="46.3662" ry="18"/>
<text text-anchor="middle" x="1171.7666" y="-877.8" font-family="Times,serif" font-size="14.00" fill="#000000">members</text>
</g>
<!-- n17&#45;&gt;n23 -->
<g id="edge18" class="edge">
<title>n17-&gt;n23</title>
<path fill="none" stroke="#000000" d="M884.6206,-938.6425C955.8201,-924.5977 1059.1151,-904.2217 1120.46,-892.1208"/>
<polygon fill="#000000" stroke="#000000" points="1121.1689,-895.5485 1130.3024,-890.1792 1119.8141,-888.6808 1121.1689,-895.5485"/>
</g>
<!-- n98 -->
<g id="node69" class="node">
<title>n98</title>
<ellipse fill="none" stroke="#000000" cx="1397.7666" cy="-882" rx="48.0897" ry="18"/>
<text text-anchor="middle" x="1397.7666" y="-877.8" font-family="Times,serif" font-size="14.00" fill="#000000">modifiers</text>
</g>
<!-- n17&#45;&gt;n98 -->
<g id="edge68" class="edge">
<title>n17-&gt;n98</title>
<path fill="none" stroke="#000000" d="M911.0652,-941.2936C1036.6846,-925.9897 1243.0924,-900.8436 1341.7938,-888.819"/>
<polygon fill="#000000" stroke="#000000" points="1342.3564,-892.2765 1351.8597,-887.5927 1341.5098,-885.3278 1342.3564,-892.2765"/>
</g>
<!-- n20 -->
<g id="node16" class="node">
<title>n20</title>
<ellipse fill="none" stroke="#000000" cx="635.7666" cy="-810" rx="78.8789" ry="18"/>
<text text-anchor="middle" x="635.7666" y="-805.8" font-family="Times,serif" font-size="14.00" fill="#000000">identifier='Main'</text>
</g>
<!-- n19&#45;&gt;n20 -->
<g id="edge15" class="edge">
<title>n19-&gt;n20</title>
<path fill="none" stroke="#000000" d="M676.1402,-863.8314C669.8249,-855.411 662.2038,-845.2495 655.292,-836.0338"/>
<polygon fill="#000000" stroke="#000000" points="658.0018,-833.8134 649.2017,-827.9134 652.4017,-838.0134 658.0018,-833.8134"/>
</g>
<!-- n22 -->
<g id="node18" class="node">
<title>n22</title>
<ellipse fill="none" stroke="#000000" cx="894.7666" cy="-810" rx="162.1944" ry="18"/>
<text text-anchor="middle" x="894.7666" y="-805.8" font-family="Times,serif" font-size="14.00" fill="#000000">content='* This is a sample .. process.'</text>
</g>
<!-- n21&#45;&gt;n22 -->
<g id="edge17" class="edge">
<title>n21-&gt;n22</title>
<path fill="none" stroke="#000000" d="M916.4487,-863.8314C913.279,-855.9617 909.4967,-846.5712 905.9853,-837.8533"/>
<polygon fill="#000000" stroke="#000000" points="909.1658,-836.3815 902.1831,-828.4133 902.6727,-838.9968 909.1658,-836.3815"/>
</g>
<!-- n24 -->
<g id="node20" class="node">
<title>n24</title>
<ellipse fill="none" stroke="#000000" cx="1201.7666" cy="-810" rx="126.7043" ry="18"/>
<text text-anchor="middle" x="1201.7666" y="-805.8" font-family="Times,serif" font-size="14.00" fill="#000000">member (MethodDeclaration)</text>
</g>
<!-- n23&#45;&gt;n24 -->
<g id="edge19" class="edge">
<title>n23-&gt;n24</title>
<path fill="none" stroke="#000000" d="M1179.1824,-864.2022C1182.5464,-856.1287 1186.601,-846.3976 1190.3408,-837.422"/>
<polygon fill="#000000" stroke="#000000" points="1193.6124,-838.6701 1194.2278,-828.0931 1187.1509,-835.9777 1193.6124,-838.6701"/>
</g>
<!-- n25 -->
<g id="node21" class="node">
<title>n25</title>
<ellipse fill="none" stroke="#000000" cx="763.7666" cy="-738" rx="80.5191" ry="18"/>
<text text-anchor="middle" x="763.7666" y="-733.8" font-family="Times,serif" font-size="14.00" fill="#000000">body (BlockStmt)</text>
</g>
<!-- n24&#45;&gt;n25 -->
<g id="edge20" class="edge">
<title>n24-&gt;n25</title>
<path fill="none" stroke="#000000" d="M1111.9168,-797.2592C1041.3196,-786.9683 940.5881,-771.6665 852.7666,-756 846.4523,-754.8736 839.8968,-753.6505 833.3365,-752.39"/>
<polygon fill="#000000" stroke="#000000" points="833.5422,-748.8643 823.0574,-750.3869 832.2032,-755.7351 833.5422,-748.8643"/>
</g>
<!-- n80 -->
<g id="node59" class="node">
<title>n80</title>
<ellipse fill="none" stroke="#000000" cx="937.7666" cy="-738" rx="75.8258" ry="18"/>
<text text-anchor="middle" x="937.7666" y="-733.8" font-family="Times,serif" font-size="14.00" fill="#000000">type (VoidType)</text>
</g>
<!-- n24&#45;&gt;n80 -->
<g id="edge58" class="edge">
<title>n24-&gt;n80</title>
<path fill="none" stroke="#000000" d="M1143.1765,-794.0209C1099.9111,-782.2212 1041.2177,-766.2139 997.6492,-754.3316"/>
<polygon fill="#000000" stroke="#000000" points="998.3262,-750.8885 987.7577,-751.6339 996.4844,-757.6418 998.3262,-750.8885"/>
</g>
<!-- n81 -->
<g id="node60" class="node">
<title>n81</title>
<ellipse fill="none" stroke="#000000" cx="1122.7666" cy="-738" rx="91.429" ry="18"/>
<text text-anchor="middle" x="1122.7666" y="-733.8" font-family="Times,serif" font-size="14.00" fill="#000000">name (SimpleName)</text>
</g>
<!-- n24&#45;&gt;n81 -->
<g id="edge59" class="edge">
<title>n24-&gt;n81</title>
<path fill="none" stroke="#000000" d="M1182.2386,-792.2022C1172.3848,-783.2217 1160.2809,-772.1902 1149.5705,-762.4289"/>
<polygon fill="#000000" stroke="#000000" points="1151.8187,-759.7423 1142.0701,-755.593 1147.1034,-764.9159 1151.8187,-759.7423"/>
</g>
<!-- n83 -->
<g id="node62" class="node">
<title>n83</title>
<ellipse fill="none" stroke="#000000" cx="1279.7666" cy="-738" rx="48.0897" ry="18"/>
<text text-anchor="middle" x="1279.7666" y="-733.8" font-family="Times,serif" font-size="14.00" fill="#000000">modifiers</text>
</g>
<!-- n24&#45;&gt;n83 -->
<g id="edge61" class="edge">
<title>n24-&gt;n83</title>
<path fill="none" stroke="#000000" d="M1221.0476,-792.2022C1230.9943,-783.0206 1243.2635,-771.6952 1254.0102,-761.7752"/>
<polygon fill="#000000" stroke="#000000" points="1256.5374,-764.2056 1261.5114,-754.851 1251.7894,-759.062 1256.5374,-764.2056"/>
</g>
<!-- n88 -->
<g id="node67" class="node">
<title>n88</title>
<ellipse fill="none" stroke="#000000" cx="1398.7666" cy="-738" rx="53.2859" ry="18"/>
<text text-anchor="middle" x="1398.7666" y="-733.8" font-family="Times,serif" font-size="14.00" fill="#000000">parameters</text>
</g>
<!-- n24&#45;&gt;n88 -->
<g id="edge66" class="edge">
<title>n24-&gt;n88</title>
<path fill="none" stroke="#000000" d="M1247.9544,-793.1192C1279.5949,-781.5552 1321.3804,-766.2833 1352.9427,-754.7478"/>
<polygon fill="#000000" stroke="#000000" points="1354.1963,-758.0162 1362.3872,-751.2961 1351.7933,-751.4415 1354.1963,-758.0162"/>
</g>
<!-- n26 -->
<g id="node22" class="node">
<title>n26</title>
<ellipse fill="none" stroke="#000000" cx="763.7666" cy="-666" rx="51.5996" ry="18"/>
<text text-anchor="middle" x="763.7666" y="-661.8" font-family="Times,serif" font-size="14.00" fill="#000000">statements</text>
</g>
<!-- n25&#45;&gt;n26 -->
<g id="edge21" class="edge">
<title>n25-&gt;n26</title>
<path fill="none" stroke="#000000" d="M763.7666,-719.8314C763.7666,-712.131 763.7666,-702.9743 763.7666,-694.4166"/>
<polygon fill="#000000" stroke="#000000" points="767.2667,-694.4132 763.7666,-684.4133 760.2667,-694.4133 767.2667,-694.4132"/>
</g>
<!-- n27 -->
<g id="node23" class="node">
<title>n27</title>
<ellipse fill="none" stroke="#000000" cx="763.7666" cy="-594" rx="81.6301" ry="18"/>
<text text-anchor="middle" x="763.7666" y="-589.8" font-family="Times,serif" font-size="14.00" fill="#000000">statement (IfStmt)</text>
</g>
<!-- n26&#45;&gt;n27 -->
<g id="edge22" class="edge">
<title>n26-&gt;n27</title>
<path fill="none" stroke="#000000" d="M763.7666,-647.8314C763.7666,-640.131 763.7666,-630.9743 763.7666,-622.4166"/>
<polygon fill="#000000" stroke="#000000" points="767.2667,-622.4132 763.7666,-612.4133 760.2667,-622.4133 767.2667,-622.4132"/>
</g>
<!-- n28 -->
<g id="node24" class="node">
<title>n28</title>
<ellipse fill="none" stroke="#000000" cx="450.7666" cy="-522" rx="101.3279" ry="18"/>
<text text-anchor="middle" x="450.7666" y="-517.8" font-family="Times,serif" font-size="14.00" fill="#000000">condition (BinaryExpr)</text>
</g>
<!-- n27&#45;&gt;n28 -->
<g id="edge23" class="edge">
<title>n27-&gt;n28</title>
<path fill="none" stroke="#000000" d="M707.0847,-580.9613C655.3997,-569.0721 578.7858,-551.4485 522.7831,-538.5661"/>
<polygon fill="#000000" stroke="#000000" points="523.4585,-535.1301 512.9284,-536.2992 521.8892,-541.952 523.4585,-535.1301"/>
</g>
<!-- n38 -->
<g id="node34" class="node">
<title>n38</title>
<ellipse fill="none" stroke="#000000" cx="763.7666" cy="-522" rx="94.4122" ry="18"/>
<text text-anchor="middle" x="763.7666" y="-517.8" font-family="Times,serif" font-size="14.00" fill="#000000">elseStmt (BlockStmt)</text>
</g>
<!-- n27&#45;&gt;n38 -->
<g id="edge33" class="edge">
<title>n27-&gt;n38</title>
<path fill="none" stroke="#000000" d="M763.7666,-575.8314C763.7666,-568.131 763.7666,-558.9743 763.7666,-550.4166"/>
<polygon fill="#000000" stroke="#000000" points="767.2667,-550.4132 763.7666,-540.4133 760.2667,-550.4133 767.2667,-550.4132"/>
</g>
<!-- n53 -->
<g id="node49" class="node">
<title>n53</title>
<ellipse fill="none" stroke="#000000" cx="1021.7666" cy="-522" rx="96.1415" ry="18"/>
<text text-anchor="middle" x="1021.7666" y="-517.8" font-family="Times,serif" font-size="14.00" fill="#000000">thenStmt (BlockStmt)</text>
</g>
<!-- n27&#45;&gt;n53 -->
<g id="edge48" class="edge">
<title>n27-&gt;n53</title>
<path fill="none" stroke="#000000" d="M814.4313,-579.861C855.6339,-568.3626 913.9958,-552.0756 958.3076,-539.7095"/>
<polygon fill="#000000" stroke="#000000" points="959.4158,-543.0341 968.1069,-536.9748 957.5341,-536.2917 959.4158,-543.0341"/>
</g>
<!-- n29 -->
<g id="node25" class="node">
<title>n29</title>
<ellipse fill="none" stroke="#000000" cx="135.7666" cy="-450" rx="99.7105" ry="18"/>
<text text-anchor="middle" x="135.7666" y="-445.8" font-family="Times,serif" font-size="14.00" fill="#000000">operator='GREATER'</text>
</g>
<!-- n28&#45;&gt;n29 -->
<g id="edge24" class="edge">
<title>n28-&gt;n29</title>
<path fill="none" stroke="#000000" d="M388.5328,-507.7751C336.4603,-495.8728 262.1338,-478.8839 207.5542,-466.4086"/>
<polygon fill="#000000" stroke="#000000" points="208.1312,-462.9503 197.6027,-464.1339 206.5713,-469.7743 208.1312,-462.9503"/>
</g>
<!-- n30 -->
<g id="node26" class="node">
<title>n30</title>
<ellipse fill="none" stroke="#000000" cx="351.7666" cy="-450" rx="98.9281" ry="18"/>
<text text-anchor="middle" x="351.7666" y="-445.8" font-family="Times,serif" font-size="14.00" fill="#000000">left (FieldAccessExpr)</text>
</g>
<!-- n28&#45;&gt;n30 -->
<g id="edge25" class="edge">
<title>n28-&gt;n30</title>
<path fill="none" stroke="#000000" d="M426.5485,-504.3868C413.844,-495.1472 398.1022,-483.6986 384.3435,-473.6922"/>
<polygon fill="#000000" stroke="#000000" points="386.2239,-470.7321 376.0779,-467.6809 382.1066,-476.3932 386.2239,-470.7321"/>
</g>
<!-- n36 -->
<g id="node32" class="node">
<title>n36</title>
<ellipse fill="none" stroke="#000000" cx="578.7666" cy="-450" rx="109.9457" ry="18"/>
<text text-anchor="middle" x="578.7666" y="-445.8" font-family="Times,serif" font-size="14.00" fill="#000000">right (IntegerLiteralExpr)</text>
</g>
<!-- n28&#45;&gt;n36 -->
<g id="edge31" class="edge">
<title>n28-&gt;n36</title>
<path fill="none" stroke="#000000" d="M481.4258,-504.7542C498.7141,-495.0296 520.5055,-482.7719 539.085,-472.3209"/>
<polygon fill="#000000" stroke="#000000" points="540.9142,-475.3078 547.914,-467.3546 537.4823,-469.2068 540.9142,-475.3078"/>
</g>
<!-- n31 -->
<g id="node27" class="node">
<title>n31</title>
<ellipse fill="none" stroke="#000000" cx="159.7666" cy="-378" rx="91.429" ry="18"/>
<text text-anchor="middle" x="159.7666" y="-373.8" font-family="Times,serif" font-size="14.00" fill="#000000">name (SimpleName)</text>
</g>
<!-- n30&#45;&gt;n31 -->
<g id="edge26" class="edge">
<title>n30-&gt;n31</title>
<path fill="none" stroke="#000000" d="M308.1989,-433.6621C279.6458,-422.9547 242.166,-408.8998 212.0126,-397.5922"/>
<polygon fill="#000000" stroke="#000000" points="213.0929,-394.2594 202.5006,-394.0252 210.635,-400.8137 213.0929,-394.2594"/>
</g>
<!-- n33 -->
<g id="node29" class="node">
<title>n33</title>
<ellipse fill="none" stroke="#000000" cx="352.7666" cy="-378" rx="83.8892" ry="18"/>
<text text-anchor="middle" x="352.7666" y="-373.8" font-family="Times,serif" font-size="14.00" fill="#000000">scope (NameExpr)</text>
</g>
<!-- n30&#45;&gt;n33 -->
<g id="edge28" class="edge">
<title>n30-&gt;n33</title>
<path fill="none" stroke="#000000" d="M352.019,-431.8314C352.1259,-424.131 352.2531,-414.9743 352.372,-406.4166"/>
<polygon fill="#000000" stroke="#000000" points="355.8716,-406.4609 352.5109,-396.4133 348.8723,-406.3637 355.8716,-406.4609"/>
</g>
<!-- n32 -->
<g id="node28" class="node">
<title>n32</title>
<ellipse fill="none" stroke="#000000" cx="159.7666" cy="-306" rx="82.3915" ry="18"/>
<text text-anchor="middle" x="159.7666" y="-301.8" font-family="Times,serif" font-size="14.00" fill="#000000">identifier='length'</text>
</g>
<!-- n31&#45;&gt;n32 -->
<g id="edge27" class="edge">
<title>n31-&gt;n32</title>
<path fill="none" stroke="#000000" d="M159.7666,-359.8314C159.7666,-352.131 159.7666,-342.9743 159.7666,-334.4166"/>
<polygon fill="#000000" stroke="#000000" points="163.2667,-334.4132 159.7666,-324.4133 156.2667,-334.4133 163.2667,-334.4132"/>
</g>
<!-- n34 -->
<g id="node30" class="node">
<title>n34</title>
<ellipse fill="none" stroke="#000000" cx="352.7666" cy="-306" rx="91.429" ry="18"/>
<text text-anchor="middle" x="352.7666" y="-301.8" font-family="Times,serif" font-size="14.00" fill="#000000">name (SimpleName)</text>
</g>
<!-- n33&#45;&gt;n34 -->
<g id="edge29" class="edge">
<title>n33-&gt;n34</title>
<path fill="none" stroke="#000000" d="M352.7666,-359.8314C352.7666,-352.131 352.7666,-342.9743 352.7666,-334.4166"/>
<polygon fill="#000000" stroke="#000000" points="356.2667,-334.4132 352.7666,-324.4133 349.2667,-334.4133 356.2667,-334.4132"/>
</g>
<!-- n35 -->
<g id="node31" class="node">
<title>n35</title>
<ellipse fill="none" stroke="#000000" cx="352.7666" cy="-234" rx="74.2839" ry="18"/>
<text text-anchor="middle" x="352.7666" y="-229.8" font-family="Times,serif" font-size="14.00" fill="#000000">identifier='args'</text>
</g>
<!-- n34&#45;&gt;n35 -->
<g id="edge30" class="edge">
<title>n34-&gt;n35</title>
<path fill="none" stroke="#000000" d="M352.7666,-287.8314C352.7666,-280.131 352.7666,-270.9743 352.7666,-262.4166"/>
<polygon fill="#000000" stroke="#000000" points="356.2667,-262.4132 352.7666,-252.4133 349.2667,-262.4133 356.2667,-262.4132"/>
</g>
<!-- n37 -->
<g id="node33" class="node">
<title>n37</title>
<ellipse fill="none" stroke="#000000" cx="578.7666" cy="-378" rx="48.8088" ry="18"/>
<text text-anchor="middle" x="578.7666" y="-373.8" font-family="Times,serif" font-size="14.00" fill="#000000">value='0'</text>
</g>
<!-- n36&#45;&gt;n37 -->
<g id="edge32" class="edge">
<title>n36-&gt;n37</title>
<path fill="none" stroke="#000000" d="M578.7666,-431.8314C578.7666,-424.131 578.7666,-414.9743 578.7666,-406.4166"/>
<polygon fill="#000000" stroke="#000000" points="582.2667,-406.4132 578.7666,-396.4133 575.2667,-406.4133 582.2667,-406.4132"/>
</g>
<!-- n39 -->
<g id="node35" class="node">
<title>n39</title>
<ellipse fill="none" stroke="#000000" cx="763.7666" cy="-450" rx="51.5996" ry="18"/>
<text text-anchor="middle" x="763.7666" y="-445.8" font-family="Times,serif" font-size="14.00" fill="#000000">statements</text>
</g>
<!-- n38&#45;&gt;n39 -->
<g id="edge34" class="edge">
<title>n38-&gt;n39</title>
<path fill="none" stroke="#000000" d="M763.7666,-503.8314C763.7666,-496.131 763.7666,-486.9743 763.7666,-478.4166"/>
<polygon fill="#000000" stroke="#000000" points="767.2667,-478.4132 763.7666,-468.4133 760.2667,-478.4133 767.2667,-478.4132"/>
</g>
<!-- n40 -->
<g id="node36" class="node">
<title>n40</title>
<ellipse fill="none" stroke="#000000" cx="763.7666" cy="-378" rx="118.0902" ry="18"/>
<text text-anchor="middle" x="763.7666" y="-373.8" font-family="Times,serif" font-size="14.00" fill="#000000">statement (ExpressionStmt)</text>
</g>
<!-- n39&#45;&gt;n40 -->
<g id="edge35" class="edge">
<title>n39-&gt;n40</title>
<path fill="none" stroke="#000000" d="M763.7666,-431.8314C763.7666,-424.131 763.7666,-414.9743 763.7666,-406.4166"/>
<polygon fill="#000000" stroke="#000000" points="767.2667,-406.4132 763.7666,-396.4133 760.2667,-406.4133 767.2667,-406.4132"/>
</g>
<!-- n41 -->
<g id="node37" class="node">
<title>n41</title>
<ellipse fill="none" stroke="#000000" cx="762.7666" cy="-306" rx="126.1652" ry="18"/>
<text text-anchor="middle" x="762.7666" y="-301.8" font-family="Times,serif" font-size="14.00" fill="#000000">expression (MethodCallExpr)</text>
</g>
<!-- n40&#45;&gt;n41 -->
<g id="edge36" class="edge">
<title>n40-&gt;n41</title>
<path fill="none" stroke="#000000" d="M763.5143,-359.8314C763.4074,-352.131 763.2802,-342.9743 763.1613,-334.4166"/>
<polygon fill="#000000" stroke="#000000" points="766.661,-334.3637 763.0224,-324.4133 759.6617,-334.4609 766.661,-334.3637"/>
</g>
<!-- n42 -->
<g id="node38" class="node">
<title>n42</title>
<ellipse fill="none" stroke="#000000" cx="541.7666" cy="-234" rx="91.429" ry="18"/>
<text text-anchor="middle" x="541.7666" y="-229.8" font-family="Times,serif" font-size="14.00" fill="#000000">name (SimpleName)</text>
</g>
<!-- n41&#45;&gt;n42 -->
<g id="edge37" class="edge">
<title>n41-&gt;n42</title>
<path fill="none" stroke="#000000" d="M712.0648,-289.4817C678.2845,-278.4764 633.8349,-263.9951 598.8182,-252.5869"/>
<polygon fill="#000000" stroke="#000000" points="599.8008,-249.2261 589.2085,-249.4562 597.6324,-255.8817 599.8008,-249.2261"/>
</g>
<!-- n44 -->
<g id="node40" class="node">
<title>n44</title>
<ellipse fill="none" stroke="#000000" cx="761.7666" cy="-234" rx="107.6622" ry="18"/>
<text text-anchor="middle" x="761.7666" y="-229.8" font-family="Times,serif" font-size="14.00" fill="#000000">scope (FieldAccessExpr)</text>
</g>
<!-- n41&#45;&gt;n44 -->
<g id="edge39" class="edge">
<title>n41-&gt;n44</title>
<path fill="none" stroke="#000000" d="M762.5143,-287.8314C762.4074,-280.131 762.2802,-270.9743 762.1613,-262.4166"/>
<polygon fill="#000000" stroke="#000000" points="765.661,-262.3637 762.0224,-252.4133 758.6617,-262.4609 765.661,-262.3637"/>
</g>
<!-- n50 -->
<g id="node46" class="node">
<title>n50</title>
<ellipse fill="none" stroke="#000000" cx="962.7666" cy="-234" rx="51.0242" ry="18"/>
<text text-anchor="middle" x="962.7666" y="-229.8" font-family="Times,serif" font-size="14.00" fill="#000000">arguments</text>
</g>
<!-- n41&#45;&gt;n50 -->
<g id="edge45" class="edge">
<title>n41-&gt;n50</title>
<path fill="none" stroke="#000000" d="M809.4054,-289.2101C841.833,-277.5361 884.8479,-262.0507 917.0682,-250.4514"/>
<polygon fill="#000000" stroke="#000000" points="918.4741,-253.6653 926.6974,-246.9849 916.103,-247.0791 918.4741,-253.6653"/>
</g>
<!-- n43 -->
<g id="node39" class="node">
<title>n43</title>
<ellipse fill="none" stroke="#000000" cx="375.7666" cy="-162" rx="84.115" ry="18"/>
<text text-anchor="middle" x="375.7666" y="-157.8" font-family="Times,serif" font-size="14.00" fill="#000000">identifier='println'</text>
</g>
<!-- n42&#45;&gt;n43 -->
<g id="edge38" class="edge">
<title>n42-&gt;n43</title>
<path fill="none" stroke="#000000" d="M503.6829,-217.4817C479.4716,-206.9805 447.9634,-193.3143 422.2769,-182.1731"/>
<polygon fill="#000000" stroke="#000000" points="423.668,-178.9615 413.1011,-178.1933 420.8826,-185.3835 423.668,-178.9615"/>
</g>
<!-- n45 -->
<g id="node41" class="node">
<title>n45</title>
<ellipse fill="none" stroke="#000000" cx="568.7666" cy="-162" rx="91.429" ry="18"/>
<text text-anchor="middle" x="568.7666" y="-157.8" font-family="Times,serif" font-size="14.00" fill="#000000">name (SimpleName)</text>
</g>
<!-- n44&#45;&gt;n45 -->
<g id="edge40" class="edge">
<title>n44-&gt;n45</title>
<path fill="none" stroke="#000000" d="M717.4885,-217.4817C688.768,-206.7674 651.216,-192.7583 621.0322,-181.498"/>
<polygon fill="#000000" stroke="#000000" points="622.1043,-178.1624 611.5117,-177.9463 619.6576,-184.7209 622.1043,-178.1624"/>
</g>
<!-- n47 -->
<g id="node43" class="node">
<title>n47</title>
<ellipse fill="none" stroke="#000000" cx="761.7666" cy="-162" rx="83.8892" ry="18"/>
<text text-anchor="middle" x="761.7666" y="-157.8" font-family="Times,serif" font-size="14.00" fill="#000000">scope (NameExpr)</text>
</g>
<!-- n44&#45;&gt;n47 -->
<g id="edge42" class="edge">
<title>n44-&gt;n47</title>
<path fill="none" stroke="#000000" d="M761.7666,-215.8314C761.7666,-208.131 761.7666,-198.9743 761.7666,-190.4166"/>
<polygon fill="#000000" stroke="#000000" points="765.2667,-190.4132 761.7666,-180.4133 758.2667,-190.4133 765.2667,-190.4132"/>
</g>
<!-- n46 -->
<g id="node42" class="node">
<title>n46</title>
<ellipse fill="none" stroke="#000000" cx="568.7666" cy="-90" rx="70.7941" ry="18"/>
<text text-anchor="middle" x="568.7666" y="-85.8" font-family="Times,serif" font-size="14.00" fill="#000000">identifier='out'</text>
</g>
<!-- n45&#45;&gt;n46 -->
<g id="edge41" class="edge">
<title>n45-&gt;n46</title>
<path fill="none" stroke="#000000" d="M568.7666,-143.8314C568.7666,-136.131 568.7666,-126.9743 568.7666,-118.4166"/>
<polygon fill="#000000" stroke="#000000" points="572.2667,-118.4132 568.7666,-108.4133 565.2667,-118.4133 572.2667,-118.4132"/>
</g>
<!-- n48 -->
<g id="node44" class="node">
<title>n48</title>
<ellipse fill="none" stroke="#000000" cx="754.7666" cy="-90" rx="91.429" ry="18"/>
<text text-anchor="middle" x="754.7666" y="-85.8" font-family="Times,serif" font-size="14.00" fill="#000000">name (SimpleName)</text>
</g>
<!-- n47&#45;&gt;n48 -->
<g id="edge43" class="edge">
<title>n47-&gt;n48</title>
<path fill="none" stroke="#000000" d="M760.0003,-143.8314C759.2516,-136.131 758.3614,-126.9743 757.5294,-118.4166"/>
<polygon fill="#000000" stroke="#000000" points="761.0082,-118.0276 756.5568,-108.4133 754.041,-118.7051 761.0082,-118.0276"/>
</g>
<!-- n49 -->
<g id="node45" class="node">
<title>n49</title>
<ellipse fill="none" stroke="#000000" cx="754.7666" cy="-18" rx="86.983" ry="18"/>
<text text-anchor="middle" x="754.7666" y="-13.8" font-family="Times,serif" font-size="14.00" fill="#000000">identifier='System'</text>
</g>
<!-- n48&#45;&gt;n49 -->
<g id="edge44" class="edge">
<title>n48-&gt;n49</title>
<path fill="none" stroke="#000000" d="M754.7666,-71.8314C754.7666,-64.131 754.7666,-54.9743 754.7666,-46.4166"/>
<polygon fill="#000000" stroke="#000000" points="758.2667,-46.4132 754.7666,-36.4133 751.2667,-46.4133 758.2667,-46.4132"/>
</g>
<!-- n51 -->
<g id="node47" class="node">
<title>n51</title>
<ellipse fill="none" stroke="#000000" cx="987.7666" cy="-162" rx="124.434" ry="18"/>
<text text-anchor="middle" x="987.7666" y="-157.8" font-family="Times,serif" font-size="14.00" fill="#000000">argument (StringLiteralExpr)</text>
</g>
<!-- n50&#45;&gt;n51 -->
<g id="edge46" class="edge">
<title>n50-&gt;n51</title>
<path fill="none" stroke="#000000" d="M969.0752,-215.8314C971.7783,-208.0463 974.9983,-198.7729 977.9976,-190.1347"/>
<polygon fill="#000000" stroke="#000000" points="981.3993,-191.0081 981.3732,-180.4133 974.7866,-188.7119 981.3993,-191.0081"/>
</g>
<!-- n52 -->
<g id="node48" class="node">
<title>n52</title>
<ellipse fill="none" stroke="#000000" cx="997.7666" cy="-90" rx="134.3833" ry="18"/>
<text text-anchor="middle" x="997.7666" y="-85.8" font-family="Times,serif" font-size="14.00" fill="#000000">value='Hello world from Java!'</text>
</g>
<!-- n51&#45;&gt;n52 -->
<g id="edge47" class="edge">
<title>n51-&gt;n52</title>
<path fill="none" stroke="#000000" d="M990.2901,-143.8314C991.3596,-136.131 992.6313,-126.9743 993.8199,-118.4166"/>
<polygon fill="#000000" stroke="#000000" points="997.3002,-118.7997 995.2092,-108.4133 990.3668,-117.8367 997.3002,-118.7997"/>
</g>
<!-- n54 -->
<g id="node50" class="node">
<title>n54</title>
<ellipse fill="none" stroke="#000000" cx="1120.7666" cy="-450" rx="51.5996" ry="18"/>
<text text-anchor="middle" x="1120.7666" y="-445.8" font-family="Times,serif" font-size="14.00" fill="#000000">statements</text>
</g>
<!-- n53&#45;&gt;n54 -->
<g id="edge49" class="edge">
<title>n53-&gt;n54</title>
<path fill="none" stroke="#000000" d="M1045.9848,-504.3868C1059.1634,-494.8024 1075.6101,-482.8412 1089.7214,-472.5783"/>
<polygon fill="#000000" stroke="#000000" points="1092.1271,-475.1566 1098.1559,-466.4442 1088.0099,-469.4954 1092.1271,-475.1566"/>
</g>
<!-- n55 -->
<g id="node51" class="node">
<title>n55</title>
<ellipse fill="none" stroke="#000000" cx="1199.7666" cy="-378" rx="118.0902" ry="18"/>
<text text-anchor="middle" x="1199.7666" y="-373.8" font-family="Times,serif" font-size="14.00" fill="#000000">statement (ExpressionStmt)</text>
</g>
<!-- n54&#45;&gt;n55 -->
<g id="edge50" class="edge">
<title>n54-&gt;n55</title>
<path fill="none" stroke="#000000" d="M1139.4885,-432.937C1149.3284,-423.969 1161.5732,-412.8092 1172.4513,-402.895"/>
<polygon fill="#000000" stroke="#000000" points="1175.0434,-405.2682 1180.0767,-395.9453 1170.3281,-400.0945 1175.0434,-405.2682"/>
</g>
<!-- n56 -->
<g id="node52" class="node">
<title>n56</title>
<ellipse fill="none" stroke="#000000" cx="1278.7666" cy="-306" rx="126.1652" ry="18"/>
<text text-anchor="middle" x="1278.7666" y="-301.8" font-family="Times,serif" font-size="14.00" fill="#000000">expression (MethodCallExpr)</text>
</g>
<!-- n55&#45;&gt;n56 -->
<g id="edge51" class="edge">
<title>n55-&gt;n56</title>
<path fill="none" stroke="#000000" d="M1219.2947,-360.2022C1229.0749,-351.2887 1241.0718,-340.3548 1251.7227,-330.6476"/>
<polygon fill="#000000" stroke="#000000" points="1254.1561,-333.1654 1259.1894,-323.8425 1249.4408,-327.9918 1254.1561,-333.1654"/>
</g>
<!-- n57 -->
<g id="node53" class="node">
<title>n57</title>
<ellipse fill="none" stroke="#000000" cx="1170.7666" cy="-234" rx="91.429" ry="18"/>
<text text-anchor="middle" x="1170.7666" y="-229.8" font-family="Times,serif" font-size="14.00" fill="#000000">name (SimpleName)</text>
</g>
<!-- n56&#45;&gt;n57 -->
<g id="edge52" class="edge">
<title>n56-&gt;n57</title>
<path fill="none" stroke="#000000" d="M1252.3469,-288.3868C1238.2522,-278.9904 1220.7308,-267.3095 1205.5429,-257.1842"/>
<polygon fill="#000000" stroke="#000000" points="1207.1756,-254.0662 1196.9137,-251.4313 1203.2927,-259.8906 1207.1756,-254.0662"/>
</g>
<!-- n59 -->
<g id="node55" class="node">
<title>n59</title>
<ellipse fill="none" stroke="#000000" cx="1387.7666" cy="-234" rx="107.6622" ry="18"/>
<text text-anchor="middle" x="1387.7666" y="-229.8" font-family="Times,serif" font-size="14.00" fill="#000000">scope (FieldAccessExpr)</text>
</g>
<!-- n56&#45;&gt;n59 -->
<g id="edge54" class="edge">
<title>n56-&gt;n59</title>
<path fill="none" stroke="#000000" d="M1305.431,-288.3868C1319.5508,-279.06 1337.078,-267.4824 1352.3274,-257.4094"/>
<polygon fill="#000000" stroke="#000000" points="1354.5848,-260.113 1360.9997,-251.6809 1350.7267,-254.2722 1354.5848,-260.113"/>
</g>
<!-- n65 -->
<g id="node57" class="node">
<title>n65</title>
<ellipse fill="none" stroke="#000000" cx="1564.7666" cy="-234" rx="51.0242" ry="18"/>
<text text-anchor="middle" x="1564.7666" y="-229.8" font-family="Times,serif" font-size="14.00" fill="#000000">arguments</text>
</g>
<!-- n56&#45;&gt;n65 -->
<g id="edge56" class="edge">
<title>n56-&gt;n65</title>
<path fill="none" stroke="#000000" d="M1346.763,-290.816C1391.7623,-280.5065 1451.9847,-266.2107 1504.7666,-252 1508.557,-250.9795 1512.4712,-249.889 1516.3991,-248.7684"/>
<polygon fill="#000000" stroke="#000000" points="1517.5003,-252.0933 1526.1279,-245.944 1515.5486,-245.3709 1517.5003,-252.0933"/>
</g>
<!-- n58 -->
<g id="node54" class="node">
<title>n58</title>
<ellipse fill="none" stroke="#000000" cx="1214.7666" cy="-162" rx="84.115" ry="18"/>
<text text-anchor="middle" x="1214.7666" y="-157.8" font-family="Times,serif" font-size="14.00" fill="#000000">identifier='println'</text>
</g>
<!-- n57&#45;&gt;n58 -->
<g id="edge53" class="edge">
<title>n57-&gt;n58</title>
<path fill="none" stroke="#000000" d="M1181.8697,-215.8314C1186.9104,-207.5829 1192.9723,-197.6635 1198.5116,-188.5992"/>
<polygon fill="#000000" stroke="#000000" points="1201.5915,-190.2713 1203.8196,-179.9134 1195.6185,-186.6212 1201.5915,-190.2713"/>
</g>
<!-- n60 -->
<g id="node56" class="node">
<title>n60</title>
<ellipse fill="none" stroke="#000000" cx="1387.7666" cy="-162" rx="27" ry="18"/>
<text text-anchor="middle" x="1387.7666" y="-157.8" font-family="Times,serif" font-size="14.00" fill="#000000">...</text>
</g>
<!-- n59&#45;&gt;n60 -->
<g id="edge55" class="edge">
<title>n59-&gt;n60</title>
<path fill="none" stroke="#000000" d="M1387.7666,-215.8314C1387.7666,-208.131 1387.7666,-198.9743 1387.7666,-190.4166"/>
<polygon fill="#000000" stroke="#000000" points="1391.2667,-190.4132 1387.7666,-180.4133 1384.2667,-190.4133 1391.2667,-190.4132"/>
</g>
<!-- n66 -->
<g id="node58" class="node">
<title>n66</title>
<ellipse fill="none" stroke="#000000" cx="1564.7666" cy="-162" rx="27" ry="18"/>
<text text-anchor="middle" x="1564.7666" y="-157.8" font-family="Times,serif" font-size="14.00" fill="#000000">...</text>
</g>
<!-- n65&#45;&gt;n66 -->
<g id="edge57" class="edge">
<title>n65-&gt;n66</title>
<path fill="none" stroke="#000000" d="M1564.7666,-215.8314C1564.7666,-208.131 1564.7666,-198.9743 1564.7666,-190.4166"/>
<polygon fill="#000000" stroke="#000000" points="1568.2667,-190.4132 1564.7666,-180.4133 1561.2667,-190.4133 1568.2667,-190.4132"/>
</g>
<!-- n82 -->
<g id="node61" class="node">
<title>n82</title>
<ellipse fill="none" stroke="#000000" cx="1003.7666" cy="-666" rx="77.7347" ry="18"/>
<text text-anchor="middle" x="1003.7666" y="-661.8" font-family="Times,serif" font-size="14.00" fill="#000000">identifier='main'</text>
</g>
<!-- n81&#45;&gt;n82 -->
<g id="edge60" class="edge">
<title>n81-&gt;n82</title>
<path fill="none" stroke="#000000" d="M1094.2632,-720.7542C1078.1024,-710.9763 1057.7091,-698.6374 1040.3744,-688.1492"/>
<polygon fill="#000000" stroke="#000000" points="1041.9946,-685.0388 1031.6269,-682.8566 1038.371,-691.0279 1041.9946,-685.0388"/>
</g>
<!-- n84 -->
<g id="node63" class="node">
<title>n84</title>
<ellipse fill="none" stroke="#000000" cx="1186.7666" cy="-666" rx="87.4154" ry="18"/>
<text text-anchor="middle" x="1186.7666" y="-661.8" font-family="Times,serif" font-size="14.00" fill="#000000">modifier (Modifier)</text>
</g>
<!-- n83&#45;&gt;n84 -->
<g id="edge62" class="edge">
<title>n83-&gt;n84</title>
<path fill="none" stroke="#000000" d="M1258.6635,-721.6621C1246.5032,-712.2477 1231.0003,-700.2454 1217.5059,-689.7981"/>
<polygon fill="#000000" stroke="#000000" points="1219.461,-686.8854 1209.4111,-683.5312 1215.1757,-692.4205 1219.461,-686.8854"/>
</g>
<!-- n86 -->
<g id="node65" class="node">
<title>n86</title>
<ellipse fill="none" stroke="#000000" cx="1379.7666" cy="-666" rx="87.4154" ry="18"/>
<text text-anchor="middle" x="1379.7666" y="-661.8" font-family="Times,serif" font-size="14.00" fill="#000000">modifier (Modifier)</text>
</g>
<!-- n83&#45;&gt;n86 -->
<g id="edge64" class="edge">
<title>n83-&gt;n86</title>
<path fill="none" stroke="#000000" d="M1301.9599,-722.0209C1315.2356,-712.4624 1332.3461,-700.1428 1347.1396,-689.4915"/>
<polygon fill="#000000" stroke="#000000" points="1349.4652,-692.1299 1355.5355,-683.4464 1345.3751,-686.4491 1349.4652,-692.1299"/>
</g>
<!-- n85 -->
<g id="node64" class="node">
<title>n85</title>
<ellipse fill="none" stroke="#000000" cx="1182.7666" cy="-594" rx="91.0654" ry="18"/>
<text text-anchor="middle" x="1182.7666" y="-589.8" font-family="Times,serif" font-size="14.00" fill="#000000">keyword='PUBLIC'</text>
</g>
<!-- n84&#45;&gt;n85 -->
<g id="edge63" class="edge">
<title>n84-&gt;n85</title>
<path fill="none" stroke="#000000" d="M1185.7573,-647.8314C1185.3295,-640.131 1184.8208,-630.9743 1184.3453,-622.4166"/>
<polygon fill="#000000" stroke="#000000" points="1187.839,-622.2037 1183.7896,-612.4133 1180.8498,-622.592 1187.839,-622.2037"/>
</g>
<!-- n87 -->
<g id="node66" class="node">
<title>n87</title>
<ellipse fill="none" stroke="#000000" cx="1382.7666" cy="-594" rx="90.4838" ry="18"/>
<text text-anchor="middle" x="1382.7666" y="-589.8" font-family="Times,serif" font-size="14.00" fill="#000000">keyword='STATIC'</text>
</g>
<!-- n86&#45;&gt;n87 -->
<g id="edge65" class="edge">
<title>n86-&gt;n87</title>
<path fill="none" stroke="#000000" d="M1380.5237,-647.8314C1380.8445,-640.131 1381.226,-630.9743 1381.5826,-622.4166"/>
<polygon fill="#000000" stroke="#000000" points="1385.08,-622.5503 1381.9994,-612.4133 1378.0861,-622.2589 1385.08,-622.5503"/>
</g>
<!-- n89 -->
<g id="node68" class="node">
<title>n89</title>
<ellipse fill="none" stroke="#000000" cx="1511.7666" cy="-666" rx="27" ry="18"/>
<text text-anchor="middle" x="1511.7666" y="-661.8" font-family="Times,serif" font-size="14.00" fill="#000000">...</text>
</g>
<!-- n88&#45;&gt;n89 -->
<g id="edge67" class="edge">
<title>n88-&gt;n89</title>
<path fill="none" stroke="#000000" d="M1423.845,-722.0209C1441.5023,-710.7702 1465.1629,-695.6944 1483.4913,-684.0162"/>
<polygon fill="#000000" stroke="#000000" points="1485.4581,-686.9131 1492.0109,-678.5878 1481.6965,-681.0096 1485.4581,-686.9131"/>
</g>
<!-- n99 -->
<g id="node70" class="node">
<title>n99</title>
<ellipse fill="none" stroke="#000000" cx="1536.7666" cy="-810" rx="87.4154" ry="18"/>
<text text-anchor="middle" x="1536.7666" y="-805.8" font-family="Times,serif" font-size="14.00" fill="#000000">modifier (Modifier)</text>
</g>
<!-- n98&#45;&gt;n99 -->
<g id="edge69" class="edge">
<title>n98-&gt;n99</title>
<path fill="none" stroke="#000000" d="M1426.2308,-867.256C1446.196,-856.9143 1473.2001,-842.9266 1495.5194,-831.3655"/>
<polygon fill="#000000" stroke="#000000" points="1497.1775,-834.4483 1504.4472,-826.741 1493.9579,-828.2327 1497.1775,-834.4483"/>
</g>
<!-- n100 -->
<g id="node71" class="node">
<title>n100</title>
<ellipse fill="none" stroke="#000000" cx="1560.7666" cy="-738" rx="91.0654" ry="18"/>
<text text-anchor="middle" x="1560.7666" y="-733.8" font-family="Times,serif" font-size="14.00" fill="#000000">keyword='PUBLIC'</text>
</g>
<!-- n99&#45;&gt;n100 -->
<g id="edge70" class="edge">
<title>n99-&gt;n100</title>
<path fill="none" stroke="#000000" d="M1542.8229,-791.8314C1545.4179,-784.0463 1548.509,-774.7729 1551.3884,-766.1347"/>
<polygon fill="#000000" stroke="#000000" points="1554.7869,-767.0069 1554.6289,-756.4133 1548.1462,-764.7933 1554.7869,-767.0069"/>
</g>
</g>
</svg>