<?xml version="1.0" encoding="UTF-8" standalone="no"?><!DOCTYPE svg PUBLIC "-//W3C//DTD SVG 1.1//EN" "http://www.w3.org/Graphics/SVG/1.1/DTD/svg11.dtd"><!-- Generated by graphviz version 2.40.1 (20161225.0304)
 --><!-- Title: %0 Pages: 1 --><svg xmlns="http://www.w3.org/2000/svg" xmlns:xlink="http://www.w3.org/1999/xlink" width="1230pt" height="859pt" viewBox="0.00 0.00 1229.61 858.83">
<g id="graph0" class="graph" transform="scale(1 1) rotate(0) translate(4 854.8313)">
<title>%0</title>
<polygon fill="#ffffff" stroke="transparent" points="-4,4 -4,-854.8313 1225.6052,-854.8313 1225.6052,4 -4,4"/>
<!-- n24 -->
<g id="node1" class="node">
<title>n24</title>
<ellipse fill="none" stroke="#000000" cx="492.6052" cy="-832.8313" rx="126.7043" ry="18"/>
<text text-anchor="middle" x="492.6052" y="-828.6313" font-family="Times,serif" font-size="14.00" fill="#000000">member (MethodDeclaration)</text>
</g>
<!-- n80 -->
<g id="node2" class="node">
<title>n80</title>
<ellipse fill="none" stroke="#000000" cx="150.6052" cy="-760.8313" rx="75.8258" ry="18"/>
<text text-anchor="middle" x="150.6052" y="-756.6313" font-family="Times,serif" font-size="14.00" fill="#000000">type (VoidType)</text>
</g>
<!-- n24&#45;&gt;n80 -->
<g id="edge1" class="edge">
<title>n24-&gt;n80</title>
<path fill="none" stroke="#000000" d="M421.4191,-817.9054C369.8275,-807.0802 298.3947,-792.0761 235.6052,-778.8313 229.5999,-777.5645 223.3565,-776.2458 217.1021,-774.9235"/>
<polygon fill="#000000" stroke="#000000" points="217.8056,-771.4949 207.2977,-772.8498 216.357,-778.3434 217.8056,-771.4949"/>
</g>
<!-- n81 -->
<g id="node3" class="node">
<title>n81</title>
<ellipse fill="none" stroke="#000000" cx="335.6052" cy="-760.8313" rx="91.429" ry="18"/>
<text text-anchor="middle" x="335.6052" y="-756.6313" font-family="Times,serif" font-size="14.00" fill="#000000">name (SimpleName)</text>
</g>
<!-- n24&#45;&gt;n81 -->
<g id="edge2" class="edge">
<title>n24-&gt;n81</title>
<path fill="none" stroke="#000000" d="M454.9998,-815.5855C432.8344,-805.4205 404.6338,-792.4877 381.2062,-781.7438"/>
<polygon fill="#000000" stroke="#000000" points="382.3716,-778.4278 371.8228,-777.4407 379.4536,-784.7907 382.3716,-778.4278"/>
</g>
<!-- n83 -->
<g id="node5" class="node">
<title>n83</title>
<ellipse fill="none" stroke="#000000" cx="492.6052" cy="-760.8313" rx="48.0897" ry="18"/>
<text text-anchor="middle" x="492.6052" y="-756.6313" font-family="Times,serif" font-size="14.00" fill="#000000">modifiers</text>
</g>
<!-- n24&#45;&gt;n83 -->
<g id="edge4" class="edge">
<title>n24-&gt;n83</title>
<path fill="none" stroke="#000000" d="M492.6052,-814.6626C492.6052,-806.9622 492.6052,-797.8056 492.6052,-789.2479"/>
<polygon fill="#000000" stroke="#000000" points="496.1053,-789.2445 492.6052,-779.2446 489.1053,-789.2446 496.1053,-789.2445"/>
</g>
<!-- n25 -->
<g id="node10" class="node">
<title>n25</title>
<ellipse fill="none" stroke="#000000" cx="652.6052" cy="-760.8313" rx="80.5191" ry="18"/>
<text text-anchor="middle" x="652.6052" y="-756.6313" font-family="Times,serif" font-size="14.00" fill="#000000">body (BlockStmt)</text>
</g>
<!-- n24&#45;&gt;n25 -->
<g id="edge9" class="edge">
<title>n24-&gt;n25</title>
<path fill="none" stroke="#000000" d="M530.9292,-815.5855C553.8634,-805.2651 583.1375,-792.0918 607.2241,-781.2528"/>
<polygon fill="#000000" stroke="#000000" points="608.832,-784.3673 616.5149,-777.0719 605.9594,-777.9839 608.832,-784.3673"/>
</g>
<!-- n88 -->
<g id="node40" class="node">
<title>n88</title>
<ellipse fill="none" stroke="#000000" cx="839.6052" cy="-760.8313" rx="53.2859" ry="18"/>
<text text-anchor="middle" x="839.6052" y="-756.6313" font-family="Times,serif" font-size="14.00" fill="#000000">parameters</text>
</g>
<!-- n24&#45;&gt;n88 -->
<g id="edge39" class="edge">
<title>n24-&gt;n88</title>
<path fill="none" stroke="#000000" d="M564.5038,-817.9128C629.7144,-804.3821 724.491,-784.7166 784.0515,-772.3583"/>
<polygon fill="#000000" stroke="#000000" points="784.9419,-775.7481 794.0223,-770.2894 783.5197,-768.8941 784.9419,-775.7481"/>
</g>
<!-- n82 -->
<g id="node4" class="node">
<title>n82</title>
<ellipse fill="none" stroke="#000000" cx="116.6052" cy="-688.8313" rx="77.7347" ry="18"/>
<text text-anchor="middle" x="116.6052" y="-684.6313" font-family="Times,serif" font-size="14.00" fill="#000000">identifier='main'</text>
</g>
<!-- n81&#45;&gt;n82 -->
<g id="edge3" class="edge">
<title>n81-&gt;n82</title>
<path fill="none" stroke="#000000" d="M288.6242,-745.3855C254.2746,-734.0925 207.5813,-718.7412 171.51,-706.8822"/>
<polygon fill="#000000" stroke="#000000" points="172.2297,-703.4346 161.6368,-703.6362 170.0434,-710.0844 172.2297,-703.4346"/>
</g>
<!-- n84 -->
<g id="node6" class="node">
<title>n84</title>
<ellipse fill="none" stroke="#000000" cx="299.6052" cy="-688.8313" rx="87.4154" ry="18"/>
<text text-anchor="middle" x="299.6052" y="-684.6313" font-family="Times,serif" font-size="14.00" fill="#000000">modifier (Modifier)</text>
</g>
<!-- n83&#45;&gt;n84 -->
<g id="edge5" class="edge">
<title>n83-&gt;n84</title>
<path fill="none" stroke="#000000" d="M458.5449,-748.1249C428.9969,-737.1018 385.7615,-720.9725 351.8411,-708.3183"/>
<polygon fill="#000000" stroke="#000000" points="352.6831,-704.8968 342.0905,-704.6807 350.2364,-711.4553 352.6831,-704.8968"/>
</g>
<!-- n86 -->
<g id="node8" class="node">
<title>n86</title>
<ellipse fill="none" stroke="#000000" cx="492.6052" cy="-688.8313" rx="87.4154" ry="18"/>
<text text-anchor="middle" x="492.6052" y="-684.6313" font-family="Times,serif" font-size="14.00" fill="#000000">modifier (Modifier)</text>
</g>
<!-- n83&#45;&gt;n86 -->
<g id="edge7" class="edge">
<title>n83-&gt;n86</title>
<path fill="none" stroke="#000000" d="M492.6052,-742.6626C492.6052,-734.9622 492.6052,-725.8056 492.6052,-717.2479"/>
<polygon fill="#000000" stroke="#000000" points="496.1053,-717.2445 492.6052,-707.2446 489.1053,-717.2446 496.1053,-717.2445"/>
</g>
<!-- n85 -->
<g id="node7" class="node">
<title>n85</title>
<ellipse fill="none" stroke="#000000" cx="285.6052" cy="-616.8313" rx="91.0654" ry="18"/>
<text text-anchor="middle" x="285.6052" y="-612.6313" font-family="Times,serif" font-size="14.00" fill="#000000">keyword='PUBLIC'</text>
</g>
<!-- n84&#45;&gt;n85 -->
<g id="edge6" class="edge">
<title>n84-&gt;n85</title>
<path fill="none" stroke="#000000" d="M296.0724,-670.6626C294.5751,-662.9622 292.7946,-653.8056 291.1306,-645.2479"/>
<polygon fill="#000000" stroke="#000000" points="294.53,-644.3926 289.1855,-635.2446 287.6587,-645.7288 294.53,-644.3926"/>
</g>
<!-- n87 -->
<g id="node9" class="node">
<title>n87</title>
<ellipse fill="none" stroke="#000000" cx="485.6052" cy="-616.8313" rx="90.4838" ry="18"/>
<text text-anchor="middle" x="485.6052" y="-612.6313" font-family="Times,serif" font-size="14.00" fill="#000000">keyword='STATIC'</text>
</g>
<!-- n86&#45;&gt;n87 -->
<g id="edge8" class="edge">
<title>n86-&gt;n87</title>
<path fill="none" stroke="#000000" d="M490.8388,-670.6626C490.0901,-662.9622 489.1999,-653.8056 488.3679,-645.2479"/>
<polygon fill="#000000" stroke="#000000" points="491.8467,-644.8589 487.3954,-635.2446 484.8795,-645.5363 491.8467,-644.8589"/>
</g>
<!-- n26 -->
<g id="node11" class="node">
<title>n26</title>
<ellipse fill="none" stroke="#000000" cx="659.6052" cy="-688.8313" rx="51.5996" ry="18"/>
<text text-anchor="middle" x="659.6052" y="-684.6313" font-family="Times,serif" font-size="14.00" fill="#000000">statements</text>
</g>
<!-- n25&#45;&gt;n26 -->
<g id="edge10" class="edge">
<title>n25-&gt;n26</title>
<path fill="none" stroke="#000000" d="M654.3716,-742.6626C655.1202,-734.9622 656.0104,-725.8056 656.8424,-717.2479"/>
<polygon fill="#000000" stroke="#000000" points="660.3308,-717.5363 657.815,-707.2446 653.3637,-716.8589 660.3308,-717.5363"/>
</g>
<!-- n27 -->
<g id="node12" class="node">
<title>n27</title>
<ellipse fill="none" stroke="#000000" cx="675.6052" cy="-616.8313" rx="81.6301" ry="18"/>
<text text-anchor="middle" x="675.6052" y="-612.6313" font-family="Times,serif" font-size="14.00" fill="#000000">statement (IfStmt)</text>
</g>
<!-- n26&#45;&gt;n27 -->
<g id="edge11" class="edge">
<title>n26-&gt;n27</title>
<path fill="none" stroke="#000000" d="M663.6427,-670.6626C665.3539,-662.9622 667.3887,-653.8056 669.2904,-645.2479"/>
<polygon fill="#000000" stroke="#000000" points="672.7606,-645.7657 671.5133,-635.2446 665.9273,-644.2471 672.7606,-645.7657"/>
</g>
<!-- n28 -->
<g id="node13" class="node">
<title>n28</title>
<ellipse fill="none" stroke="#000000" cx="385.6052" cy="-544.8313" rx="101.3279" ry="18"/>
<text text-anchor="middle" x="385.6052" y="-540.6313" font-family="Times,serif" font-size="14.00" fill="#000000">condition (BinaryExpr)</text>
</g>
<!-- n27&#45;&gt;n28 -->
<g id="edge12" class="edge">
<title>n27-&gt;n28</title>
<path fill="none" stroke="#000000" d="M621.3986,-603.3731C574.2919,-591.6776 505.7926,-574.6709 454.7495,-561.9982"/>
<polygon fill="#000000" stroke="#000000" points="455.3339,-558.537 444.7851,-559.5242 453.6471,-565.3308 455.3339,-558.537"/>
</g>
<!-- n38 -->
<g id="node23" class="node">
<title>n38</title>
<ellipse fill="none" stroke="#000000" cx="668.6052" cy="-544.8313" rx="94.4122" ry="18"/>
<text text-anchor="middle" x="668.6052" y="-540.6313" font-family="Times,serif" font-size="14.00" fill="#000000">elseStmt (BlockStmt)</text>
</g>
<!-- n27&#45;&gt;n38 -->
<g id="edge22" class="edge">
<title>n27-&gt;n38</title>
<path fill="none" stroke="#000000" d="M673.8388,-598.6626C673.0901,-590.9622 672.1999,-581.8056 671.3679,-573.2479"/>
<polygon fill="#000000" stroke="#000000" points="674.8467,-572.8589 670.3954,-563.2446 667.8795,-573.5363 674.8467,-572.8589"/>
</g>
<!-- n53 -->
<g id="node38" class="node">
<title>n53</title>
<ellipse fill="none" stroke="#000000" cx="877.6052" cy="-544.8313" rx="96.1415" ry="18"/>
<text text-anchor="middle" x="877.6052" y="-540.6313" font-family="Times,serif" font-size="14.00" fill="#000000">thenStmt (BlockStmt)</text>
</g>
<!-- n27&#45;&gt;n53 -->
<g id="edge37" class="edge">
<title>n27-&gt;n53</title>
<path fill="none" stroke="#000000" d="M718.9392,-601.3855C749.4319,-590.5168 790.4706,-575.8892 823.1714,-564.2334"/>
<polygon fill="#000000" stroke="#000000" points="824.3491,-567.5294 832.5935,-560.875 821.9988,-560.9357 824.3491,-567.5294"/>
</g>
<!-- n29 -->
<g id="node14" class="node">
<title>n29</title>
<ellipse fill="none" stroke="#000000" cx="99.6052" cy="-472.8313" rx="99.7105" ry="18"/>
<text text-anchor="middle" x="99.6052" y="-468.6313" font-family="Times,serif" font-size="14.00" fill="#000000">operator='GREATER'</text>
</g>
<!-- n28&#45;&gt;n29 -->
<g id="edge13" class="edge">
<title>n28-&gt;n29</title>
<path fill="none" stroke="#000000" d="M327.0387,-530.0873C280.8657,-518.4633 216.3953,-502.233 167.8818,-490.0198"/>
<polygon fill="#000000" stroke="#000000" points="168.6453,-486.6029 158.0934,-487.5556 166.9363,-493.3911 168.6453,-486.6029"/>
</g>
<!-- n30 -->
<g id="node15" class="node">
<title>n30</title>
<ellipse fill="none" stroke="#000000" cx="315.6052" cy="-472.8313" rx="98.9281" ry="18"/>
<text text-anchor="middle" x="315.6052" y="-468.6313" font-family="Times,serif" font-size="14.00" fill="#000000">left (FieldAccessExpr)</text>
</g>
<!-- n28&#45;&gt;n30 -->
<g id="edge14" class="edge">
<title>n28-&gt;n30</title>
<path fill="none" stroke="#000000" d="M368.3018,-527.0335C359.8041,-518.293 349.4177,-507.6099 340.1192,-498.0457"/>
<polygon fill="#000000" stroke="#000000" points="342.4324,-495.404 332.9521,-490.6738 337.4134,-500.2836 342.4324,-495.404"/>
</g>
<!-- n36 -->
<g id="node21" class="node">
<title>n36</title>
<ellipse fill="none" stroke="#000000" cx="542.6052" cy="-472.8313" rx="109.9457" ry="18"/>
<text text-anchor="middle" x="542.6052" y="-468.6313" font-family="Times,serif" font-size="14.00" fill="#000000">right (IntegerLiteralExpr)</text>
</g>
<!-- n28&#45;&gt;n36 -->
<g id="edge20" class="edge">
<title>n28-&gt;n36</title>
<path fill="none" stroke="#000000" d="M422.4147,-527.9505C444.4982,-517.823 472.7828,-504.8517 496.3652,-494.0369"/>
<polygon fill="#000000" stroke="#000000" points="497.8515,-497.2058 505.4823,-489.8558 494.9335,-490.843 497.8515,-497.2058"/>
</g>
<!-- n31 -->
<g id="node16" class="node">
<title>n31</title>
<ellipse fill="none" stroke="#000000" cx="124.6052" cy="-400.8313" rx="91.429" ry="18"/>
<text text-anchor="middle" x="124.6052" y="-396.6313" font-family="Times,serif" font-size="14.00" fill="#000000">name (SimpleName)</text>
</g>
<!-- n30&#45;&gt;n31 -->
<g id="edge15" class="edge">
<title>n30-&gt;n31</title>
<path fill="none" stroke="#000000" d="M272.2643,-456.4934C243.8599,-445.786 206.5754,-431.731 176.5791,-420.4235"/>
<polygon fill="#000000" stroke="#000000" points="177.7084,-417.1089 167.1166,-416.8565 175.2392,-423.659 177.7084,-417.1089"/>
</g>
<!-- n33 -->
<g id="node18" class="node">
<title>n33</title>
<ellipse fill="none" stroke="#000000" cx="317.6052" cy="-400.8313" rx="83.8892" ry="18"/>
<text text-anchor="middle" x="317.6052" y="-396.6313" font-family="Times,serif" font-size="14.00" fill="#000000">scope (NameExpr)</text>
</g>
<!-- n30&#45;&gt;n33 -->
<g id="edge17" class="edge">
<title>n30-&gt;n33</title>
<path fill="none" stroke="#000000" d="M316.1099,-454.6626C316.3238,-446.9622 316.5781,-437.8056 316.8158,-429.2479"/>
<polygon fill="#000000" stroke="#000000" points="320.3146,-429.3379 317.0937,-419.2446 313.3173,-429.1435 320.3146,-429.3379"/>
</g>
<!-- n32 -->
<g id="node17" class="node">
<title>n32</title>
<ellipse fill="none" stroke="#000000" cx="124.6052" cy="-328.8313" rx="82.3915" ry="18"/>
<text text-anchor="middle" x="124.6052" y="-324.6313" font-family="Times,serif" font-size="14.00" fill="#000000">identifier='length'</text>
</g>
<!-- n31&#45;&gt;n32 -->
<g id="edge16" class="edge">
<title>n31-&gt;n32</title>
<path fill="none" stroke="#000000" d="M124.6052,-382.6626C124.6052,-374.9622 124.6052,-365.8056 124.6052,-357.2479"/>
<polygon fill="#000000" stroke="#000000" points="128.1053,-357.2445 124.6052,-347.2446 121.1053,-357.2446 128.1053,-357.2445"/>
</g>
<!-- n34 -->
<g id="node19" class="node">
<title>n34</title>
<ellipse fill="none" stroke="#000000" cx="317.6052" cy="-328.8313" rx="91.429" ry="18"/>
<text text-anchor="middle" x="317.6052" y="-324.6313" font-family="Times,serif" font-size="14.00" fill="#000000">name (SimpleName)</text>
</g>
<!-- n33&#45;&gt;n34 -->
<g id="edge18" class="edge">
<title>n33-&gt;n34</title>
<path fill="none" stroke="#000000" d="M317.6052,-382.6626C317.6052,-374.9622 317.6052,-365.8056 317.6052,-357.2479"/>
<polygon fill="#000000" stroke="#000000" points="321.1053,-357.2445 317.6052,-347.2446 314.1053,-357.2446 321.1053,-357.2445"/>
</g>
<!-- n35 -->
<g id="node20" class="node">
<title>n35</title>
<ellipse fill="none" stroke="#000000" cx="317.6052" cy="-256.8313" rx="74.2839" ry="18"/>
<text text-anchor="middle" x="317.6052" y="-252.6313" font-family="Times,serif" font-size="14.00" fill="#000000">identifier='args'</text>
</g>
<!-- n34&#45;&gt;n35 -->
<g id="edge19" class="edge">
<title>n34-&gt;n35</title>
<path fill="none" stroke="#000000" d="M317.6052,-310.6626C317.6052,-302.9622 317.6052,-293.8056 317.6052,-285.2479"/>
<polygon fill="#000000" stroke="#000000" points="321.1053,-285.2445 317.6052,-275.2446 314.1053,-285.2446 321.1053,-285.2445"/>
</g>
<!-- n37 -->
<g id="node22" class="node">
<title>n37</title>
<ellipse fill="none" stroke="#000000" cx="541.6052" cy="-400.8313" rx="48.8088" ry="18"/>
<text text-anchor="middle" x="541.6052" y="-396.6313" font-family="Times,serif" font-size="14.00" fill="#000000">value='0'</text>
</g>
<!-- n36&#45;&gt;n37 -->
<g id="edge21" class="edge">
<title>n36-&gt;n37</title>
<path fill="none" stroke="#000000" d="M542.3528,-454.6626C542.2459,-446.9622 542.1187,-437.8056 541.9999,-429.2479"/>
<polygon fill="#000000" stroke="#000000" points="545.4996,-429.1949 541.8609,-419.2446 538.5002,-429.2922 545.4996,-429.1949"/>
</g>
<!-- n39 -->
<g id="node24" class="node">
<title>n39</title>
<ellipse fill="none" stroke="#000000" cx="724.6052" cy="-472.8313" rx="51.5996" ry="18"/>
<text text-anchor="middle" x="724.6052" y="-468.6313" font-family="Times,serif" font-size="14.00" fill="#000000">statements</text>
</g>
<!-- n38&#45;&gt;n39 -->
<g id="edge23" class="edge">
<title>n38-&gt;n39</title>
<path fill="none" stroke="#000000" d="M682.7363,-526.6626C689.4526,-518.0275 697.593,-507.5612 704.9037,-498.1617"/>
<polygon fill="#000000" stroke="#000000" points="707.6814,-500.2913 711.0581,-490.249 702.1559,-495.9937 707.6814,-500.2913"/>
</g>
<!-- n40 -->
<g id="node25" class="node">
<title>n40</title>
<ellipse fill="none" stroke="#000000" cx="726.6052" cy="-400.8313" rx="118.0902" ry="18"/>
<text text-anchor="middle" x="726.6052" y="-396.6313" font-family="Times,serif" font-size="14.00" fill="#000000">statement (ExpressionStmt)</text>
</g>
<!-- n39&#45;&gt;n40 -->
<g id="edge24" class="edge">
<title>n39-&gt;n40</title>
<path fill="none" stroke="#000000" d="M725.1099,-454.6626C725.3238,-446.9622 725.5781,-437.8056 725.8158,-429.2479"/>
<polygon fill="#000000" stroke="#000000" points="729.3146,-429.3379 726.0937,-419.2446 722.3173,-429.1435 729.3146,-429.3379"/>
</g>
<!-- n41 -->
<g id="node26" class="node">
<title>n41</title>
<ellipse fill="none" stroke="#000000" cx="726.6052" cy="-328.8313" rx="126.1652" ry="18"/>
<text text-anchor="middle" x="726.6052" y="-324.6313" font-family="Times,serif" font-size="14.00" fill="#000000">expression (MethodCallExpr)</text>
</g>
<!-- n40&#45;&gt;n41 -->
<g id="edge25" class="edge">
<title>n40-&gt;n41</title>
<path fill="none" stroke="#000000" d="M726.6052,-382.6626C726.6052,-374.9622 726.6052,-365.8056 726.6052,-357.2479"/>
<polygon fill="#000000" stroke="#000000" points="730.1053,-357.2445 726.6052,-347.2446 723.1053,-357.2446 730.1053,-357.2445"/>
</g>
<!-- n42 -->
<g id="node27" class="node">
<title>n42</title>
<ellipse fill="none" stroke="#000000" cx="506.6052" cy="-256.8313" rx="91.429" ry="18"/>
<text text-anchor="middle" x="506.6052" y="-252.6313" font-family="Times,serif" font-size="14.00" fill="#000000">name (SimpleName)</text>
</g>
<!-- n41&#45;&gt;n42 -->
<g id="edge26" class="edge">
<title>n41-&gt;n42</title>
<path fill="none" stroke="#000000" d="M676.1327,-312.313C642.5053,-301.3077 598.2568,-286.8264 563.3985,-275.4182"/>
<polygon fill="#000000" stroke="#000000" points="564.425,-272.0715 553.8324,-272.2875 562.2477,-278.7243 564.425,-272.0715"/>
</g>
<!-- n44 -->
<g id="node29" class="node">
<title>n44</title>
<ellipse fill="none" stroke="#000000" cx="726.6052" cy="-256.8313" rx="107.6622" ry="18"/>
<text text-anchor="middle" x="726.6052" y="-252.6313" font-family="Times,serif" font-size="14.00" fill="#000000">scope (FieldAccessExpr)</text>
</g>
<!-- n41&#45;&gt;n44 -->
<g id="edge28" class="edge">
<title>n41-&gt;n44</title>
<path fill="none" stroke="#000000" d="M726.6052,-310.6626C726.6052,-302.9622 726.6052,-293.8056 726.6052,-285.2479"/>
<polygon fill="#000000" stroke="#000000" points="730.1053,-285.2445 726.6052,-275.2446 723.1053,-285.2446 730.1053,-285.2445"/>
</g>
<!-- n50 -->
<g id="node35" class="node">
<title>n50</title>
<ellipse fill="none" stroke="#000000" cx="1010.6052" cy="-256.8313" rx="51.0242" ry="18"/>
<text text-anchor="middle" x="1010.6052" y="-252.6313" font-family="Times,serif" font-size="14.00" fill="#000000">arguments</text>
</g>
<!-- n41&#45;&gt;n50 -->
<g id="edge34" class="edge">
<title>n41-&gt;n50</title>
<path fill="none" stroke="#000000" d="M788.5792,-313.1195C839.6241,-300.1786 911.1533,-282.0444 959.0946,-269.8903"/>
<polygon fill="#000000" stroke="#000000" points="960.1176,-273.2417 968.9508,-267.3915 958.3974,-266.4564 960.1176,-273.2417"/>
</g>
<!-- n43 -->
<g id="node28" class="node">
<title>n43</title>
<ellipse fill="none" stroke="#000000" cx="452.6052" cy="-184.8313" rx="84.115" ry="18"/>
<text text-anchor="middle" x="452.6052" y="-180.6313" font-family="Times,serif" font-size="14.00" fill="#000000">identifier='println'</text>
</g>
<!-- n42&#45;&gt;n43 -->
<g id="edge27" class="edge">
<title>n42-&gt;n43</title>
<path fill="none" stroke="#000000" d="M492.9787,-238.6626C486.6635,-230.2423 479.0423,-220.0808 472.1305,-210.8651"/>
<polygon fill="#000000" stroke="#000000" points="474.8403,-208.6447 466.0402,-202.7447 469.2403,-212.8447 474.8403,-208.6447"/>
</g>
<!-- n45 -->
<g id="node30" class="node">
<title>n45</title>
<ellipse fill="none" stroke="#000000" cx="645.6052" cy="-184.8313" rx="91.429" ry="18"/>
<text text-anchor="middle" x="645.6052" y="-180.6313" font-family="Times,serif" font-size="14.00" fill="#000000">name (SimpleName)</text>
</g>
<!-- n44&#45;&gt;n45 -->
<g id="edge29" class="edge">
<title>n44-&gt;n45</title>
<path fill="none" stroke="#000000" d="M706.5827,-239.0335C696.4795,-230.0529 684.0692,-219.0215 673.0876,-209.2601"/>
<polygon fill="#000000" stroke="#000000" points="675.1967,-206.452 665.3973,-202.4243 670.5462,-211.6839 675.1967,-206.452"/>
</g>
<!-- n47 -->
<g id="node32" class="node">
<title>n47</title>
<ellipse fill="none" stroke="#000000" cx="838.6052" cy="-184.8313" rx="83.8892" ry="18"/>
<text text-anchor="middle" x="838.6052" y="-180.6313" font-family="Times,serif" font-size="14.00" fill="#000000">scope (NameExpr)</text>
</g>
<!-- n44&#45;&gt;n47 -->
<g id="edge31" class="edge">
<title>n44-&gt;n47</title>
<path fill="none" stroke="#000000" d="M753.7173,-239.4021C768.575,-229.8507 787.1688,-217.8975 803.1641,-207.6149"/>
<polygon fill="#000000" stroke="#000000" points="805.2236,-210.4517 811.7428,-202.1 801.4383,-204.5635 805.2236,-210.4517"/>
</g>
<!-- n46 -->
<g id="node31" class="node">
<title>n46</title>
<ellipse fill="none" stroke="#000000" cx="645.6052" cy="-101.4156" rx="70.7941" ry="18"/>
<text text-anchor="middle" x="645.6052" y="-97.2156" font-family="Times,serif" font-size="14.00" fill="#000000">identifier='out'</text>
</g>
<!-- n45&#45;&gt;n46 -->
<g id="edge30" class="edge">
<title>n45-&gt;n46</title>
<path fill="none" stroke="#000000" d="M645.6052,-166.7313C645.6052,-155.9097 645.6052,-141.9265 645.6052,-129.6763"/>
<polygon fill="#000000" stroke="#000000" points="649.1053,-129.4802 645.6052,-119.4803 642.1053,-129.4803 649.1053,-129.4802"/>
</g>
<!-- n48 -->
<g id="node33" class="node">
<title>n48</title>
<ellipse fill="none" stroke="#000000" cx="838.6052" cy="-101.4156" rx="91.429" ry="18"/>
<text text-anchor="middle" x="838.6052" y="-97.2156" font-family="Times,serif" font-size="14.00" fill="#000000">name (SimpleName)</text>
</g>
<!-- n47&#45;&gt;n48 -->
<g id="edge32" class="edge">
<title>n47-&gt;n48</title>
<path fill="none" stroke="#000000" d="M838.6052,-166.7313C838.6052,-155.9097 838.6052,-141.9265 838.6052,-129.6763"/>
<polygon fill="#000000" stroke="#000000" points="842.1053,-129.4802 838.6052,-119.4803 835.1053,-129.4803 842.1053,-129.4802"/>
</g>
<!-- n49 -->
<g id="node34" class="node">
<title>n49</title>
<ellipse fill="none" stroke="#000000" cx="838.6052" cy="-18" rx="86.983" ry="18"/>
<text text-anchor="middle" x="838.6052" y="-13.8" font-family="Times,serif" font-size="14.00" fill="#000000">identifier='System'</text>
</g>
<!-- n48&#45;&gt;n49 -->
<g id="edge33" class="edge">
<title>n48-&gt;n49</title>
<path fill="none" stroke="#000000" d="M838.6052,-83.3157C838.6052,-72.4941 838.6052,-58.5108 838.6052,-46.2607"/>
<polygon fill="#000000" stroke="#000000" points="842.1053,-46.0646 838.6052,-36.0646 835.1053,-46.0647 842.1053,-46.0646"/>
</g>
<!-- n51 -->
<g id="node36" class="node">
<title>n51</title>
<ellipse fill="none" stroke="#000000" cx="1064.6052" cy="-184.8313" rx="124.434" ry="18"/>
<text text-anchor="middle" x="1064.6052" y="-180.6313" font-family="Times,serif" font-size="14.00" fill="#000000">argument (StringLiteralExpr)</text>
</g>
<!-- n50&#45;&gt;n51 -->
<g id="edge35" class="edge">
<title>n50-&gt;n51</title>
<path fill="none" stroke="#000000" d="M1023.6771,-239.4021C1030.0988,-230.8398 1037.9681,-220.3474 1045.0848,-210.8585"/>
<polygon fill="#000000" stroke="#000000" points="1047.8897,-212.9519 1051.0897,-202.8519 1042.2897,-208.7519 1047.8897,-212.9519"/>
</g>
<!-- n52 -->
<g id="node37" class="node">
<title>n52</title>
<ellipse fill="none" stroke="#000000" cx="1064.6052" cy="-101.4156" rx="91.8322" ry="29.3315"/>
<text text-anchor="middle" x="1064.6052" y="-105.6156" font-family="Times,serif" font-size="14.00" fill="#000000">value='Hello world </text>
<text text-anchor="middle" x="1064.6052" y="-88.8156" font-family="Times,serif" font-size="14.00" fill="#000000"> from Java!'</text>
</g>
<!-- n51&#45;&gt;n52 -->
<g id="edge36" class="edge">
<title>n51-&gt;n52</title>
<path fill="none" stroke="#000000" d="M1064.6052,-166.7313C1064.6052,-159.1418 1064.6052,-149.9972 1064.6052,-140.986"/>
<polygon fill="#000000" stroke="#000000" points="1068.1053,-140.9587 1064.6052,-130.9588 1061.1053,-140.9588 1068.1053,-140.9587"/>
</g>
<!-- n54 -->
<g id="node39" class="node">
<title>n54</title>
<ellipse fill="none" stroke="#000000" cx="877.6052" cy="-472.8313" rx="27" ry="18"/>
<text text-anchor="middle" x="877.6052" y="-468.6313" font-family="Times,serif" font-size="14.00" fill="#000000">...</text>
</g>
<!-- n53&#45;&gt;n54 -->
<g id="edge38" class="edge">
<title>n53-&gt;n54</title>
<path fill="none" stroke="#000000" d="M877.6052,-526.6626C877.6052,-518.9622 877.6052,-509.8056 877.6052,-501.2479"/>
<polygon fill="#000000" stroke="#000000" points="881.1053,-501.2445 877.6052,-491.2446 874.1053,-501.2446 881.1053,-501.2445"/>
</g>
<!-- n89 -->
<g id="node41" class="node">
<title>n89</title>
<ellipse fill="none" stroke="#000000" cx="963.6052" cy="-688.8313" rx="97.7434" ry="18"/>
<text text-anchor="middle" x="963.6052" y="-684.6313" font-family="Times,serif" font-size="14.00" fill="#000000">parameter (Parameter)</text>
</g>
<!-- n88&#45;&gt;n89 -->
<g id="edge40" class="edge">
<title>n88-&gt;n89</title>
<path fill="none" stroke="#000000" d="M866.5113,-745.2084C883.6058,-735.2825 906.0074,-722.2751 924.9851,-711.2559"/>
<polygon fill="#000000" stroke="#000000" points="926.8189,-714.2384 933.7093,-706.1902 923.3039,-708.1848 926.8189,-714.2384"/>
</g>
<!-- n90 -->
<g id="node42" class="node">
<title>n90</title>
<ellipse fill="none" stroke="#000000" cx="868.6052" cy="-616.8313" rx="80.6433" ry="18"/>
<text text-anchor="middle" x="868.6052" y="-612.6313" font-family="Times,serif" font-size="14.00" fill="#000000">isVarArgs='false'</text>
</g>
<!-- n89&#45;&gt;n90 -->
<g id="edge41" class="edge">
<title>n89-&gt;n90</title>
<path fill="none" stroke="#000000" d="M940.122,-671.0335C927.9524,-661.8102 912.9286,-650.4238 899.7972,-640.4716"/>
<polygon fill="#000000" stroke="#000000" points="901.5742,-637.4267 891.4904,-634.1759 897.346,-643.0055 901.5742,-637.4267"/>
</g>
<!-- n91 -->
<g id="node43" class="node">
<title>n91</title>
<ellipse fill="none" stroke="#000000" cx="1058.6052" cy="-616.8313" rx="91.429" ry="18"/>
<text text-anchor="middle" x="1058.6052" y="-612.6313" font-family="Times,serif" font-size="14.00" fill="#000000">name (SimpleName)</text>
</g>
<!-- n89&#45;&gt;n91 -->
<g id="edge42" class="edge">
<title>n89-&gt;n91</title>
<path fill="none" stroke="#000000" d="M987.0883,-671.0335C999.1678,-661.8786 1014.0594,-650.5923 1027.121,-640.693"/>
<polygon fill="#000000" stroke="#000000" points="1029.5365,-643.2539 1035.3922,-634.4243 1025.3084,-637.6751 1029.5365,-643.2539"/>
</g>
<!-- n93 -->
<g id="node45" class="node">
<title>n93</title>
<ellipse fill="none" stroke="#000000" cx="1194.6052" cy="-616.8313" rx="27" ry="18"/>
<text text-anchor="middle" x="1194.6052" y="-612.6313" font-family="Times,serif" font-size="14.00" fill="#000000">...</text>
</g>
<!-- n89&#45;&gt;n93 -->
<g id="edge44" class="edge">
<title>n89-&gt;n93</title>
<path fill="none" stroke="#000000" d="M1025.6313,-674.9121C1064.4475,-665.407 1115.1581,-651.5281 1158.6052,-634.8313 1160.4641,-634.1169 1162.3554,-633.3385 1164.2486,-632.5191"/>
<polygon fill="#000000" stroke="#000000" points="1165.9912,-635.5692 1173.5921,-628.1884 1163.0475,-629.2182 1165.9912,-635.5692"/>
</g>
<!-- n92 -->
<g id="node44" class="node">
<title>n92</title>
<ellipse fill="none" stroke="#000000" cx="1065.6052" cy="-544.8313" rx="74.2839" ry="18"/>
<text text-anchor="middle" x="1065.6052" y="-540.6313" font-family="Times,serif" font-size="14.00" fill="#000000">identifier='args'</text>
</g>
<!-- n91&#45;&gt;n92 -->
<g id="edge43" class="edge">
<title>n91-&gt;n92</title>
<path fill="none" stroke="#000000" d="M1060.3716,-598.6626C1061.1202,-590.9622 1062.0104,-581.8056 1062.8424,-573.2479"/>
<polygon fill="#000000" stroke="#000000" points="1066.3308,-573.5363 1063.815,-563.2446 1059.3637,-572.8589 1066.3308,-573.5363"/>
</g>
</g>
</svg>