<?xml version="1.0" encoding="UTF-8" standalone="no"?><!DOCTYPE svg PUBLIC "-//W3C//DTD SVG 1.1//EN" "http://www.w3.org/Graphics/SVG/1.1/DTD/svg11.dtd"><!-- Generated by graphviz version 2.40.1 (20161225.0304)
 --><!-- Title: G Pages: 1 --><svg xmlns="http://www.w3.org/2000/svg" xmlns:xlink="http://www.w3.org/1999/xlink" width="759pt" height="332pt" viewBox="0.00 0.00 759.31 332.00">
<g id="graph0" class="graph" transform="scale(1 1) rotate(0) translate(4 328)">
<title>G</title>
<polygon fill="#ffffff" stroke="transparent" points="-4,4 -4,-328 755.3054,-328 755.3054,4 -4,4"/>
<!-- n0 -->
<g id="node1" class="node">
<title>n0</title>
<ellipse fill="none" stroke="#000000" cx="295.027" cy="-234" rx="102.5111" ry="18"/>
<text text-anchor="middle" x="295.027" y="-229.8" font-family="Times,serif" font-size="14.00" fill="#000000">0: declaration, int count</text>
</g>
<!-- n5 -->
<g id="node6" class="node">
<title>n5</title>
<ellipse fill="none" stroke="#000000" cx="207.027" cy="-162" rx="87.6182" ry="18"/>
<text text-anchor="middle" x="207.027" y="-157.8" font-family="Times,serif" font-size="14.00" fill="#000000">5: control, i &lt; count</text>
</g>
<!-- n0&#45;&gt;n5 -->
<g id="edge1" class="edge">
<title>n0-&gt;n5</title>
<path fill="none" stroke="#000000" d="M273.2742,-216.2022C262.1913,-207.1345 248.553,-195.9758 236.5375,-186.1449"/>
<polygon fill="#000000" stroke="#000000" points="238.4855,-183.2166 228.5296,-179.593 234.0528,-188.6343 238.4855,-183.2166"/>
</g>
<!-- n1 -->
<g id="node2" class="node">
<title>n1</title>
<ellipse fill="none" stroke="#000000" cx="627.027" cy="-162" rx="97.2914" ry="18"/>
<text text-anchor="middle" x="627.027" y="-157.8" font-family="Times,serif" font-size="14.00" fill="#000000">1: declaration, int sum</text>
</g>
<!-- n7 -->
<g id="node8" class="node">
<title>n7</title>
<ellipse fill="none" stroke="#000000" cx="627.027" cy="-90" rx="100.3791" ry="18"/>
<text text-anchor="middle" x="627.027" y="-85.8" font-family="Times,serif" font-size="14.00" fill="#000000">7: assignment, sum = 0</text>
</g>
<!-- n1&#45;&gt;n7 -->
<g id="edge11" class="edge">
<title>n1-&gt;n7</title>
<path fill="none" stroke="#000000" d="M627.027,-143.8314C627.027,-136.131 627.027,-126.9743 627.027,-118.4166"/>
<polygon fill="#000000" stroke="#000000" points="630.5271,-118.4132 627.027,-108.4133 623.5271,-118.4133 630.5271,-118.4132"/>
</g>
<!-- n2 -->
<g id="node3" class="node">
<title>n2</title>
<ellipse fill="none" stroke="#000000" cx="87.027" cy="-306" rx="83.9663" ry="18"/>
<text text-anchor="middle" x="87.027" y="-301.8" font-family="Times,serif" font-size="14.00" fill="#000000">2: declaration, int i</text>
</g>
<!-- n6 -->
<g id="node7" class="node">
<title>n6</title>
<ellipse fill="none" stroke="#000000" cx="87.027" cy="-234" rx="87.054" ry="18"/>
<text text-anchor="middle" x="87.027" y="-229.8" font-family="Times,serif" font-size="14.00" fill="#000000">6: assignment, i = 0</text>
</g>
<!-- n2&#45;&gt;n6 -->
<g id="edge8" class="edge">
<title>n2-&gt;n6</title>
<path fill="none" stroke="#000000" d="M87.027,-287.8314C87.027,-280.131 87.027,-270.9743 87.027,-262.4166"/>
<polygon fill="#000000" stroke="#000000" points="90.5271,-262.4132 87.027,-252.4133 83.5271,-262.4133 90.5271,-262.4132"/>
</g>
<!-- n3 -->
<g id="node4" class="node">
<title>n3</title>
<ellipse fill="none" stroke="#000000" cx="361.027" cy="-306" rx="107.6212" ry="18"/>
<text text-anchor="middle" x="361.027" y="-301.8" font-family="Times,serif" font-size="14.00" fill="#000000">3: declaration, int array[]</text>
</g>
<!-- n10 -->
<g id="node11" class="node">
<title>n10</title>
<ellipse fill="none" stroke="#000000" cx="355.027" cy="-18" rx="131.3554" ry="18"/>
<text text-anchor="middle" x="355.027" y="-13.8" font-family="Times,serif" font-size="14.00" fill="#000000">10: call-site, add(sum, array[i])</text>
</g>
<!-- n3&#45;&gt;n10 -->
<g id="edge12" class="edge">
<title>n3-&gt;n10</title>
<path fill="none" stroke="#000000" d="M456.7903,-297.7774C592.5864,-282.5072 815.9147,-241.9205 733.027,-144 670.4303,-70.0506 604.7495,-151.198 518.027,-108 497.203,-97.6272 499.4475,-84.8094 480.027,-72 459.7428,-58.6209 435.5954,-47.28 413.9572,-38.4975"/>
<polygon fill="#000000" stroke="#000000" points="415.1227,-35.1946 404.5365,-34.7682 412.5462,-41.7033 415.1227,-35.1946"/>
</g>
<!-- n4 -->
<g id="node5" class="node">
<title>n4</title>
<ellipse fill="none" stroke="#000000" cx="611.027" cy="-18" rx="90.3313" ry="18"/>
<text text-anchor="middle" x="611.027" y="-13.8" font-family="Times,serif" font-size="14.00" fill="#000000">4: return, return sum</text>
</g>
<!-- n5&#45;&gt;n5 -->
<g id="edge2" class="edge">
<title>n5-&gt;n5</title>
<path fill="none" stroke="#000000" stroke-dasharray="1,5" d="M265.9119,-175.3498C291.0862,-176.3992 312.5861,-171.9492 312.5861,-162 312.5861,-153.411 296.5632,-148.9204 275.9857,-148.5282"/>
<polygon fill="#000000" stroke="#000000" points="275.8688,-145.0292 265.9119,-148.6502 275.9536,-152.0287 275.8688,-145.0292"/>
</g>
<!-- n8 -->
<g id="node9" class="node">
<title>n8</title>
<ellipse fill="none" stroke="#000000" cx="87.027" cy="-90" rx="77.955" ry="18"/>
<text text-anchor="middle" x="87.027" y="-85.8" font-family="Times,serif" font-size="14.00" fill="#000000">8: increment, i++</text>
</g>
<!-- n5&#45;&gt;n8 -->
<g id="edge3" class="edge">
<title>n5-&gt;n8</title>
<path fill="none" stroke="#000000" stroke-dasharray="1,5" d="M173.3942,-145.3008C156.3398,-135.6968 135.8162,-123.4908 119.0031,-112.9908"/>
<polygon fill="#000000" stroke="#000000" points="120.4135,-109.742 110.0898,-107.3603 116.675,-115.6601 120.4135,-109.742"/>
</g>
<!-- n9 -->
<g id="node10" class="node">
<title>n9</title>
<ellipse fill="none" stroke="#000000" cx="355.027" cy="-90" rx="115.9686" ry="18"/>
<text text-anchor="middle" x="355.027" y="-85.8" font-family="Times,serif" font-size="14.00" fill="#000000">9: assignment, sum = add()</text>
</g>
<!-- n5&#45;&gt;n9 -->
<g id="edge9" class="edge">
<title>n5-&gt;n9</title>
<path fill="none" stroke="#000000" stroke-dasharray="1,5" d="M241.3532,-145.3008C261.9006,-135.3047 288.2421,-122.49 310.3932,-111.7138"/>
<polygon fill="#000000" stroke="#000000" points="312.1396,-114.7564 319.6008,-107.2344 309.0773,-108.4617 312.1396,-114.7564"/>
</g>
<!-- n5&#45;&gt;n10 -->
<g id="edge10" class="edge">
<title>n5-&gt;n10</title>
<path fill="none" stroke="#000000" stroke-dasharray="1,5" d="M207.1305,-143.6402C208.1898,-123.7762 212.7504,-92.2386 230.027,-72 243.157,-56.6189 261.4702,-45.4875 280.0364,-37.4831"/>
<polygon fill="#000000" stroke="#000000" points="281.4797,-40.675 289.4445,-33.6884 278.8612,-34.1831 281.4797,-40.675"/>
</g>
<!-- n6&#45;&gt;n5 -->
<g id="edge7" class="edge">
<title>n6-&gt;n5</title>
<path fill="none" stroke="#000000" d="M115.4653,-216.937C131.6368,-207.2341 152.0845,-194.9655 169.5524,-184.4848"/>
<polygon fill="#000000" stroke="#000000" points="171.6028,-187.3363 178.3769,-179.19 168.0013,-181.3338 171.6028,-187.3363"/>
</g>
<!-- n6&#45;&gt;n8 -->
<g id="edge6" class="edge">
<title>n6-&gt;n8</title>
<path fill="none" stroke="#000000" d="M87.027,-215.7623C87.027,-191.201 87.027,-147.2474 87.027,-118.3541"/>
<polygon fill="#000000" stroke="#000000" points="90.5271,-118.0896 87.027,-108.0896 83.5271,-118.0897 90.5271,-118.0896"/>
</g>
<!-- n7&#45;&gt;n4 -->
<g id="edge13" class="edge">
<title>n7-&gt;n4</title>
<path fill="none" stroke="#000000" d="M622.9895,-71.8314C621.2783,-64.131 619.2435,-54.9743 617.3418,-46.4166"/>
<polygon fill="#000000" stroke="#000000" points="620.7049,-45.4159 615.1188,-36.4133 613.8716,-46.9344 620.7049,-45.4159"/>
</g>
<!-- n7&#45;&gt;n10 -->
<g id="edge15" class="edge">
<title>n7-&gt;n10</title>
<path fill="none" stroke="#000000" d="M570.6684,-75.0816C528.4824,-63.9147 470.511,-48.5693 425.2991,-36.6014"/>
<polygon fill="#000000" stroke="#000000" points="426.1269,-33.2001 415.5642,-34.0245 424.3356,-39.967 426.1269,-33.2001"/>
</g>
<!-- n8&#45;&gt;n5 -->
<g id="edge4" class="edge">
<title>n8-&gt;n5</title>
<path fill="none" stroke="#000000" d="M120.3534,-106.5267C137.5761,-116.2177 158.3985,-128.6017 175.3713,-139.2093"/>
<polygon fill="#000000" stroke="#000000" points="173.5332,-142.188 183.8566,-144.5708 177.2723,-136.2703 173.5332,-142.188"/>
</g>
<!-- n8&#45;&gt;n8 -->
<g id="edge5" class="edge">
<title>n8-&gt;n8</title>
<path fill="none" stroke="#000000" d="M139.8379,-103.3146C163.0394,-104.4929 183.0045,-100.0547 183.0045,-90 183.0045,-81.4378 168.5267,-76.9485 149.9012,-76.5319"/>
<polygon fill="#000000" stroke="#000000" points="149.7833,-73.0332 139.8379,-76.6854 149.8901,-80.0324 149.7833,-73.0332"/>
</g>
<!-- n9&#45;&gt;n4 -->
<g id="edge14" class="edge">
<title>n9-&gt;n4</title>
<path fill="none" stroke="#000000" d="M411.2073,-74.1993C451.8126,-62.779 506.6749,-47.349 548.6405,-35.5462"/>
<polygon fill="#000000" stroke="#000000" points="549.7919,-38.8582 558.4708,-32.7814 547.8966,-32.1197 549.7919,-38.8582"/>
</g>
<!-- n9&#45;&gt;n10 -->
<g id="edge16" class="edge">
<title>n9-&gt;n10</title>
<path fill="none" stroke="#000000" d="M349.0746,-71.8314C348.3242,-64.131 348.1033,-54.9743 348.4119,-46.4166"/>
<polygon fill="#000000" stroke="#000000" points="351.9062,-46.6161 349.051,-36.4133 344.9205,-46.1697 351.9062,-46.6161"/>
</g>
<!-- n10&#45;&gt;n9 -->
<g id="edge17" class="edge">
<title>n10-&gt;n9</title>
<path fill="none" stroke="#000000" d="M361.003,-36.4133C361.7341,-44.0593 361.9473,-53.1084 361.6425,-61.5726"/>
<polygon fill="#000000" stroke="#000000" points="358.1318,-61.6264 360.9794,-71.8314 365.1172,-62.078 358.1318,-61.6264"/>
</g>
</g>
</svg>